<?xml version="1.0" encoding="utf-8" standalone="no"?>
<!DOCTYPE svg PUBLIC "-//W3C//DTD SVG 1.1//EN"
  "http://www.w3.org/Graphics/SVG/1.1/DTD/svg11.dtd">
<svg xmlns:xlink="http://www.w3.org/1999/xlink" width="900pt" height="352.8pt" viewBox="0 0 900 352.8" xmlns="http://www.w3.org/2000/svg" version="1.1">
 <metadata>
  <rdf:RDF xmlns:dc="http://purl.org/dc/elements/1.1/" xmlns:cc="http://creativecommons.org/ns#" xmlns:rdf="http://www.w3.org/1999/02/22-rdf-syntax-ns#">
   <cc:Work>
    <dc:type rdf:resource="http://purl.org/dc/dcmitype/StillImage"/>
    <dc:date>2026-10-02T19:34:04.064017</dc:date>
    <dc:format>image/svg+xml</dc:format>
    <dc:creator>
     <cc:Agent>
      <dc:title>Matplotlib v3.10.8, https://matplotlib.org/</dc:title>
     </cc:Agent>
    </dc:creator>
   </cc:Work>
  </rdf:RDF>
 </metadata>
 <defs>
  <style type="text/css">*{stroke-linejoin: round; stroke-linecap: butt}</style>
 </defs>
 <g id="figure_1">
  <g id="patch_1">
   <path d="M 0 352.8 
L 900 352.8 
L 900 0 
L 0 0 
z
" style="fill: #ffffff"/>
  </g>
  <g id="axes_1">
   <g id="patch_2">
    <path d="M 45.94399 296.423534 
L 448.68125 296.423534 
L 448.68125 41.680095 
L 45.94399 41.680095 
z
" style="fill: #ffffff"/>
   </g>
   <g id="patch_3">
    <path d="M 64.250229 296.423534 
L 84.040758 296.423534 
L 84.040758 132.329059 
L 64.250229 132.329059 
z
" clip-path="url(#p942f121717)" style="fill: #008b82; opacity: 0.85"/>
   </g>
   <g id="patch_4">
    <path d="M 88.98839 296.423534 
L 108.778919 296.423534 
L 108.778919 123.632808 
L 88.98839 123.632808 
z
" clip-path="url(#p942f121717)" style="fill: #008b82; opacity: 0.85"/>
   </g>
   <g id="patch_5">
    <path d="M 113.726551 296.423534 
L 133.51708 296.423534 
L 133.51708 114.180361 
L 113.726551 114.180361 
z
" clip-path="url(#p942f121717)" style="fill: #008b82; opacity: 0.85"/>
   </g>
   <g id="patch_6">
    <path d="M 138.464712 296.423534 
L 158.255241 296.423534 
L 158.255241 132.707157 
L 138.464712 132.707157 
z
" clip-path="url(#p942f121717)" style="fill: #008b82; opacity: 0.85"/>
   </g>
   <g id="patch_7">
    <path d="M 163.202873 296.423534 
L 182.993402 296.423534 
L 182.993402 108.130795 
L 163.202873 108.130795 
z
" clip-path="url(#p942f121717)" style="fill: #008b82; opacity: 0.85"/>
   </g>
   <g id="patch_8">
    <path d="M 187.941034 296.423534 
L 207.731563 296.423534 
L 207.731563 133.463353 
L 187.941034 133.463353 
z
" clip-path="url(#p942f121717)" style="fill: #008b82; opacity: 0.85"/>
   </g>
   <g id="patch_9">
    <path d="M 212.679195 296.423534 
L 232.469723 296.423534 
L 232.469723 135.353842 
L 212.679195 135.353842 
z
" clip-path="url(#p942f121717)" style="fill: #008b82; opacity: 0.85"/>
   </g>
   <g id="patch_10">
    <path d="M 237.417356 296.423534 
L 257.207884 296.423534 
L 257.207884 150.855854 
L 237.417356 150.855854 
z
" clip-path="url(#p942f121717)" style="fill: #008b82; opacity: 0.85"/>
   </g>
   <g id="patch_11">
    <path d="M 262.155517 296.423534 
L 281.946045 296.423534 
L 281.946045 147.452974 
L 262.155517 147.452974 
z
" clip-path="url(#p942f121717)" style="fill: #008b82; opacity: 0.85"/>
   </g>
   <g id="patch_12">
    <path d="M 286.893677 296.423534 
L 306.684206 296.423534 
L 306.684206 136.110038 
L 286.893677 136.110038 
z
" clip-path="url(#p942f121717)" style="fill: #008b82; opacity: 0.85"/>
   </g>
   <g id="patch_13">
    <path d="M 311.631838 296.423534 
L 331.422367 296.423534 
L 331.422367 136.866233 
L 311.631838 136.866233 
z
" clip-path="url(#p942f121717)" style="fill: #008b82; opacity: 0.85"/>
   </g>
   <g id="patch_14">
    <path d="M 336.369999 296.423534 
L 356.160528 296.423534 
L 356.160528 116.827046 
L 336.369999 116.827046 
z
" clip-path="url(#p942f121717)" style="fill: #008b82; opacity: 0.85"/>
   </g>
   <g id="patch_15">
    <path d="M 361.10816 296.423534 
L 380.898689 296.423534 
L 380.898689 112.289872 
L 361.10816 112.289872 
z
" clip-path="url(#p942f121717)" style="fill: #008b82; opacity: 0.85"/>
   </g>
   <g id="patch_16">
    <path d="M 385.846321 296.423534 
L 405.63685 296.423534 
L 405.63685 157.283518 
L 385.846321 157.283518 
z
" clip-path="url(#p942f121717)" style="fill: #008b82; opacity: 0.85"/>
   </g>
   <g id="patch_17">
    <path d="M 410.584482 296.423534 
L 430.375011 296.423534 
L 430.375011 107.752697 
L 410.584482 107.752697 
z
" clip-path="url(#p942f121717)" style="fill: #008b82; opacity: 0.85"/>
   </g>
   <g id="matplotlib.axis_1">
    <g id="xtick_1">
     <g id="line2d_1">
      <defs>
       <path id="m59dc4e9acf" d="M 0 0 
L 0 3.5 
" style="stroke: #000000; stroke-width: 0.8"/>
      </defs>
      <g>
       <use xlink:href="#m59dc4e9acf" x="74.145493" y="296.423534" style="stroke: #000000; stroke-width: 0.8"/>
      </g>
     </g>
     <g id="text_1">
      <!-- 2026/42 -->
      <g transform="translate(66.422365 334.13468) rotate(-55) scale(0.08 -0.08)">
       <defs>
        <path id="DejaVuSans-32" d="M 1228 531 
L 3431 531 
L 3431 0 
L 469 0 
L 469 531 
Q 828 903 1448 1529 
Q 2069 2156 2228 2338 
Q 2531 2678 2651 2914 
Q 2772 3150 2772 3378 
Q 2772 3750 2511 3984 
Q 2250 4219 1831 4219 
Q 1534 4219 1204 4116 
Q 875 4013 500 3803 
L 500 4441 
Q 881 4594 1212 4672 
Q 1544 4750 1819 4750 
Q 2544 4750 2975 4387 
Q 3406 4025 3406 3419 
Q 3406 3131 3298 2873 
Q 3191 2616 2906 2266 
Q 2828 2175 2409 1742 
Q 1991 1309 1228 531 
z
" transform="scale(0.015625)"/>
        <path id="DejaVuSans-30" d="M 2034 4250 
Q 1547 4250 1301 3770 
Q 1056 3291 1056 2328 
Q 1056 1369 1301 889 
Q 1547 409 2034 409 
Q 2525 409 2770 889 
Q 3016 1369 3016 2328 
Q 3016 3291 2770 3770 
Q 2525 4250 2034 4250 
z
M 2034 4750 
Q 2819 4750 3233 4129 
Q 3647 3509 3647 2328 
Q 3647 1150 3233 529 
Q 2819 -91 2034 -91 
Q 1250 -91 836 529 
Q 422 1150 422 2328 
Q 422 3509 836 4129 
Q 1250 4750 2034 4750 
z
" transform="scale(0.015625)"/>
        <path id="DejaVuSans-36" d="M 2113 2584 
Q 1688 2584 1439 2293 
Q 1191 2003 1191 1497 
Q 1191 994 1439 701 
Q 1688 409 2113 409 
Q 2538 409 2786 701 
Q 3034 994 3034 1497 
Q 3034 2003 2786 2293 
Q 2538 2584 2113 2584 
z
M 3366 4563 
L 3366 3988 
Q 3128 4100 2886 4159 
Q 2644 4219 2406 4219 
Q 1781 4219 1451 3797 
Q 1122 3375 1075 2522 
Q 1259 2794 1537 2939 
Q 1816 3084 2150 3084 
Q 2853 3084 3261 2657 
Q 3669 2231 3669 1497 
Q 3669 778 3244 343 
Q 2819 -91 2113 -91 
Q 1303 -91 875 529 
Q 447 1150 447 2328 
Q 447 3434 972 4092 
Q 1497 4750 2381 4750 
Q 2619 4750 2861 4703 
Q 3103 4656 3366 4563 
z
" transform="scale(0.015625)"/>
        <path id="DejaVuSans-2f" d="M 1625 4666 
L 2156 4666 
L 531 -594 
L 0 -594 
L 1625 4666 
z
" transform="scale(0.015625)"/>
        <path id="DejaVuSans-34" d="M 2419 4116 
L 825 1625 
L 2419 1625 
L 2419 4116 
z
M 2253 4666 
L 3047 4666 
L 3047 1625 
L 3713 1625 
L 3713 1100 
L 3047 1100 
L 3047 0 
L 2419 0 
L 2419 1100 
L 313 1100 
L 313 1709 
L 2253 4666 
z
" transform="scale(0.015625)"/>
       </defs>
       <use xlink:href="#DejaVuSans-32"/>
       <use xlink:href="#DejaVuSans-30" transform="translate(63.623047 0)"/>
       <use xlink:href="#DejaVuSans-32" transform="translate(127.246094 0)"/>
       <use xlink:href="#DejaVuSans-36" transform="translate(190.869141 0)"/>
       <use xlink:href="#DejaVuSans-2f" transform="translate(254.492188 0)"/>
       <use xlink:href="#DejaVuSans-34" transform="translate(288.183594 0)"/>
       <use xlink:href="#DejaVuSans-32" transform="translate(351.806641 0)"/>
      </g>
     </g>
    </g>
    <g id="xtick_2">
     <g id="line2d_2">
      <g>
       <use xlink:href="#m59dc4e9acf" x="98.883654" y="296.423534" style="stroke: #000000; stroke-width: 0.8"/>
      </g>
     </g>
     <g id="text_2">
      <!-- 2026/43 -->
      <g transform="translate(91.160526 334.13468) rotate(-55) scale(0.08 -0.08)">
       <defs>
        <path id="DejaVuSans-33" d="M 2597 2516 
Q 3050 2419 3304 2112 
Q 3559 1806 3559 1356 
Q 3559 666 3084 287 
Q 2609 -91 1734 -91 
Q 1441 -91 1130 -33 
Q 819 25 488 141 
L 488 750 
Q 750 597 1062 519 
Q 1375 441 1716 441 
Q 2309 441 2620 675 
Q 2931 909 2931 1356 
Q 2931 1769 2642 2001 
Q 2353 2234 1838 2234 
L 1294 2234 
L 1294 2753 
L 1863 2753 
Q 2328 2753 2575 2939 
Q 2822 3125 2822 3475 
Q 2822 3834 2567 4026 
Q 2313 4219 1838 4219 
Q 1578 4219 1281 4162 
Q 984 4106 628 3988 
L 628 4550 
Q 988 4650 1302 4700 
Q 1616 4750 1894 4750 
Q 2613 4750 3031 4423 
Q 3450 4097 3450 3541 
Q 3450 3153 3228 2886 
Q 3006 2619 2597 2516 
z
" transform="scale(0.015625)"/>
       </defs>
       <use xlink:href="#DejaVuSans-32"/>
       <use xlink:href="#DejaVuSans-30" transform="translate(63.623047 0)"/>
       <use xlink:href="#DejaVuSans-32" transform="translate(127.246094 0)"/>
       <use xlink:href="#DejaVuSans-36" transform="translate(190.869141 0)"/>
       <use xlink:href="#DejaVuSans-2f" transform="translate(254.492188 0)"/>
       <use xlink:href="#DejaVuSans-34" transform="translate(288.183594 0)"/>
       <use xlink:href="#DejaVuSans-33" transform="translate(351.806641 0)"/>
      </g>
     </g>
    </g>
    <g id="xtick_3">
     <g id="line2d_3">
      <g>
       <use xlink:href="#m59dc4e9acf" x="123.621815" y="296.423534" style="stroke: #000000; stroke-width: 0.8"/>
      </g>
     </g>
     <g id="text_3">
      <!-- 2026/44 -->
      <g transform="translate(115.898687 334.13468) rotate(-55) scale(0.08 -0.08)">
       <use xlink:href="#DejaVuSans-32"/>
       <use xlink:href="#DejaVuSans-30" transform="translate(63.623047 0)"/>
       <use xlink:href="#DejaVuSans-32" transform="translate(127.246094 0)"/>
       <use xlink:href="#DejaVuSans-36" transform="translate(190.869141 0)"/>
       <use xlink:href="#DejaVuSans-2f" transform="translate(254.492188 0)"/>
       <use xlink:href="#DejaVuSans-34" transform="translate(288.183594 0)"/>
       <use xlink:href="#DejaVuSans-34" transform="translate(351.806641 0)"/>
      </g>
     </g>
    </g>
    <g id="xtick_4">
     <g id="line2d_4">
      <g>
       <use xlink:href="#m59dc4e9acf" x="148.359976" y="296.423534" style="stroke: #000000; stroke-width: 0.8"/>
      </g>
     </g>
     <g id="text_4">
      <!-- 2026/45 -->
      <g transform="translate(140.636848 334.13468) rotate(-55) scale(0.08 -0.08)">
       <defs>
        <path id="DejaVuSans-35" d="M 691 4666 
L 3169 4666 
L 3169 4134 
L 1269 4134 
L 1269 2991 
Q 1406 3038 1543 3061 
Q 1681 3084 1819 3084 
Q 2600 3084 3056 2656 
Q 3513 2228 3513 1497 
Q 3513 744 3044 326 
Q 2575 -91 1722 -91 
Q 1428 -91 1123 -41 
Q 819 9 494 109 
L 494 744 
Q 775 591 1075 516 
Q 1375 441 1709 441 
Q 2250 441 2565 725 
Q 2881 1009 2881 1497 
Q 2881 1984 2565 2268 
Q 2250 2553 1709 2553 
Q 1456 2553 1204 2497 
Q 953 2441 691 2322 
L 691 4666 
z
" transform="scale(0.015625)"/>
       </defs>
       <use xlink:href="#DejaVuSans-32"/>
       <use xlink:href="#DejaVuSans-30" transform="translate(63.623047 0)"/>
       <use xlink:href="#DejaVuSans-32" transform="translate(127.246094 0)"/>
       <use xlink:href="#DejaVuSans-36" transform="translate(190.869141 0)"/>
       <use xlink:href="#DejaVuSans-2f" transform="translate(254.492188 0)"/>
       <use xlink:href="#DejaVuSans-34" transform="translate(288.183594 0)"/>
       <use xlink:href="#DejaVuSans-35" transform="translate(351.806641 0)"/>
      </g>
     </g>
    </g>
    <g id="xtick_5">
     <g id="line2d_5">
      <g>
       <use xlink:href="#m59dc4e9acf" x="173.098137" y="296.423534" style="stroke: #000000; stroke-width: 0.8"/>
      </g>
     </g>
     <g id="text_5">
      <!-- 2026/46 -->
      <g transform="translate(165.375009 334.13468) rotate(-55) scale(0.08 -0.08)">
       <use xlink:href="#DejaVuSans-32"/>
       <use xlink:href="#DejaVuSans-30" transform="translate(63.623047 0)"/>
       <use xlink:href="#DejaVuSans-32" transform="translate(127.246094 0)"/>
       <use xlink:href="#DejaVuSans-36" transform="translate(190.869141 0)"/>
       <use xlink:href="#DejaVuSans-2f" transform="translate(254.492188 0)"/>
       <use xlink:href="#DejaVuSans-34" transform="translate(288.183594 0)"/>
       <use xlink:href="#DejaVuSans-36" transform="translate(351.806641 0)"/>
      </g>
     </g>
    </g>
    <g id="xtick_6">
     <g id="line2d_6">
      <g>
       <use xlink:href="#m59dc4e9acf" x="197.836298" y="296.423534" style="stroke: #000000; stroke-width: 0.8"/>
      </g>
     </g>
     <g id="text_6">
      <!-- 2027/42 -->
      <g transform="translate(190.11317 334.13468) rotate(-55) scale(0.08 -0.08)">
       <defs>
        <path id="DejaVuSans-37" d="M 525 4666 
L 3525 4666 
L 3525 4397 
L 1831 0 
L 1172 0 
L 2766 4134 
L 525 4134 
L 525 4666 
z
" transform="scale(0.015625)"/>
       </defs>
       <use xlink:href="#DejaVuSans-32"/>
       <use xlink:href="#DejaVuSans-30" transform="translate(63.623047 0)"/>
       <use xlink:href="#DejaVuSans-32" transform="translate(127.246094 0)"/>
       <use xlink:href="#DejaVuSans-37" transform="translate(190.869141 0)"/>
       <use xlink:href="#DejaVuSans-2f" transform="translate(254.492188 0)"/>
       <use xlink:href="#DejaVuSans-34" transform="translate(288.183594 0)"/>
       <use xlink:href="#DejaVuSans-32" transform="translate(351.806641 0)"/>
      </g>
     </g>
    </g>
    <g id="xtick_7">
     <g id="line2d_7">
      <g>
       <use xlink:href="#m59dc4e9acf" x="222.574459" y="296.423534" style="stroke: #000000; stroke-width: 0.8"/>
      </g>
     </g>
     <g id="text_7">
      <!-- 2027/43 -->
      <g transform="translate(214.851331 334.13468) rotate(-55) scale(0.08 -0.08)">
       <use xlink:href="#DejaVuSans-32"/>
       <use xlink:href="#DejaVuSans-30" transform="translate(63.623047 0)"/>
       <use xlink:href="#DejaVuSans-32" transform="translate(127.246094 0)"/>
       <use xlink:href="#DejaVuSans-37" transform="translate(190.869141 0)"/>
       <use xlink:href="#DejaVuSans-2f" transform="translate(254.492188 0)"/>
       <use xlink:href="#DejaVuSans-34" transform="translate(288.183594 0)"/>
       <use xlink:href="#DejaVuSans-33" transform="translate(351.806641 0)"/>
      </g>
     </g>
    </g>
    <g id="xtick_8">
     <g id="line2d_8">
      <g>
       <use xlink:href="#m59dc4e9acf" x="247.31262" y="296.423534" style="stroke: #000000; stroke-width: 0.8"/>
      </g>
     </g>
     <g id="text_8">
      <!-- 2027/44 -->
      <g transform="translate(239.589492 334.13468) rotate(-55) scale(0.08 -0.08)">
       <use xlink:href="#DejaVuSans-32"/>
       <use xlink:href="#DejaVuSans-30" transform="translate(63.623047 0)"/>
       <use xlink:href="#DejaVuSans-32" transform="translate(127.246094 0)"/>
       <use xlink:href="#DejaVuSans-37" transform="translate(190.869141 0)"/>
       <use xlink:href="#DejaVuSans-2f" transform="translate(254.492188 0)"/>
       <use xlink:href="#DejaVuSans-34" transform="translate(288.183594 0)"/>
       <use xlink:href="#DejaVuSans-34" transform="translate(351.806641 0)"/>
      </g>
     </g>
    </g>
    <g id="xtick_9">
     <g id="line2d_9">
      <g>
       <use xlink:href="#m59dc4e9acf" x="272.050781" y="296.423534" style="stroke: #000000; stroke-width: 0.8"/>
      </g>
     </g>
     <g id="text_9">
      <!-- 2027/45 -->
      <g transform="translate(264.327653 334.13468) rotate(-55) scale(0.08 -0.08)">
       <use xlink:href="#DejaVuSans-32"/>
       <use xlink:href="#DejaVuSans-30" transform="translate(63.623047 0)"/>
       <use xlink:href="#DejaVuSans-32" transform="translate(127.246094 0)"/>
       <use xlink:href="#DejaVuSans-37" transform="translate(190.869141 0)"/>
       <use xlink:href="#DejaVuSans-2f" transform="translate(254.492188 0)"/>
       <use xlink:href="#DejaVuSans-34" transform="translate(288.183594 0)"/>
       <use xlink:href="#DejaVuSans-35" transform="translate(351.806641 0)"/>
      </g>
     </g>
    </g>
    <g id="xtick_10">
     <g id="line2d_10">
      <g>
       <use xlink:href="#m59dc4e9acf" x="296.788942" y="296.423534" style="stroke: #000000; stroke-width: 0.8"/>
      </g>
     </g>
     <g id="text_10">
      <!-- 2027/46 -->
      <g transform="translate(289.065814 334.13468) rotate(-55) scale(0.08 -0.08)">
       <use xlink:href="#DejaVuSans-32"/>
       <use xlink:href="#DejaVuSans-30" transform="translate(63.623047 0)"/>
       <use xlink:href="#DejaVuSans-32" transform="translate(127.246094 0)"/>
       <use xlink:href="#DejaVuSans-37" transform="translate(190.869141 0)"/>
       <use xlink:href="#DejaVuSans-2f" transform="translate(254.492188 0)"/>
       <use xlink:href="#DejaVuSans-34" transform="translate(288.183594 0)"/>
       <use xlink:href="#DejaVuSans-36" transform="translate(351.806641 0)"/>
      </g>
     </g>
    </g>
    <g id="xtick_11">
     <g id="line2d_11">
      <g>
       <use xlink:href="#m59dc4e9acf" x="321.527103" y="296.423534" style="stroke: #000000; stroke-width: 0.8"/>
      </g>
     </g>
     <g id="text_11">
      <!-- 2028/42 -->
      <g transform="translate(313.803975 334.13468) rotate(-55) scale(0.08 -0.08)">
       <defs>
        <path id="DejaVuSans-38" d="M 2034 2216 
Q 1584 2216 1326 1975 
Q 1069 1734 1069 1313 
Q 1069 891 1326 650 
Q 1584 409 2034 409 
Q 2484 409 2743 651 
Q 3003 894 3003 1313 
Q 3003 1734 2745 1975 
Q 2488 2216 2034 2216 
z
M 1403 2484 
Q 997 2584 770 2862 
Q 544 3141 544 3541 
Q 544 4100 942 4425 
Q 1341 4750 2034 4750 
Q 2731 4750 3128 4425 
Q 3525 4100 3525 3541 
Q 3525 3141 3298 2862 
Q 3072 2584 2669 2484 
Q 3125 2378 3379 2068 
Q 3634 1759 3634 1313 
Q 3634 634 3220 271 
Q 2806 -91 2034 -91 
Q 1263 -91 848 271 
Q 434 634 434 1313 
Q 434 1759 690 2068 
Q 947 2378 1403 2484 
z
M 1172 3481 
Q 1172 3119 1398 2916 
Q 1625 2713 2034 2713 
Q 2441 2713 2670 2916 
Q 2900 3119 2900 3481 
Q 2900 3844 2670 4047 
Q 2441 4250 2034 4250 
Q 1625 4250 1398 4047 
Q 1172 3844 1172 3481 
z
" transform="scale(0.015625)"/>
       </defs>
       <use xlink:href="#DejaVuSans-32"/>
       <use xlink:href="#DejaVuSans-30" transform="translate(63.623047 0)"/>
       <use xlink:href="#DejaVuSans-32" transform="translate(127.246094 0)"/>
       <use xlink:href="#DejaVuSans-38" transform="translate(190.869141 0)"/>
       <use xlink:href="#DejaVuSans-2f" transform="translate(254.492188 0)"/>
       <use xlink:href="#DejaVuSans-34" transform="translate(288.183594 0)"/>
       <use xlink:href="#DejaVuSans-32" transform="translate(351.806641 0)"/>
      </g>
     </g>
    </g>
    <g id="xtick_12">
     <g id="line2d_12">
      <g>
       <use xlink:href="#m59dc4e9acf" x="346.265264" y="296.423534" style="stroke: #000000; stroke-width: 0.8"/>
      </g>
     </g>
     <g id="text_12">
      <!-- 2028/43 -->
      <g transform="translate(338.542135 334.13468) rotate(-55) scale(0.08 -0.08)">
       <use xlink:href="#DejaVuSans-32"/>
       <use xlink:href="#DejaVuSans-30" transform="translate(63.623047 0)"/>
       <use xlink:href="#DejaVuSans-32" transform="translate(127.246094 0)"/>
       <use xlink:href="#DejaVuSans-38" transform="translate(190.869141 0)"/>
       <use xlink:href="#DejaVuSans-2f" transform="translate(254.492188 0)"/>
       <use xlink:href="#DejaVuSans-34" transform="translate(288.183594 0)"/>
       <use xlink:href="#DejaVuSans-33" transform="translate(351.806641 0)"/>
      </g>
     </g>
    </g>
    <g id="xtick_13">
     <g id="line2d_13">
      <g>
       <use xlink:href="#m59dc4e9acf" x="371.003425" y="296.423534" style="stroke: #000000; stroke-width: 0.8"/>
      </g>
     </g>
     <g id="text_13">
      <!-- 2028/44 -->
      <g transform="translate(363.280296 334.13468) rotate(-55) scale(0.08 -0.08)">
       <use xlink:href="#DejaVuSans-32"/>
       <use xlink:href="#DejaVuSans-30" transform="translate(63.623047 0)"/>
       <use xlink:href="#DejaVuSans-32" transform="translate(127.246094 0)"/>
       <use xlink:href="#DejaVuSans-38" transform="translate(190.869141 0)"/>
       <use xlink:href="#DejaVuSans-2f" transform="translate(254.492188 0)"/>
       <use xlink:href="#DejaVuSans-34" transform="translate(288.183594 0)"/>
       <use xlink:href="#DejaVuSans-34" transform="translate(351.806641 0)"/>
      </g>
     </g>
    </g>
    <g id="xtick_14">
     <g id="line2d_14">
      <g>
       <use xlink:href="#m59dc4e9acf" x="395.741586" y="296.423534" style="stroke: #000000; stroke-width: 0.8"/>
      </g>
     </g>
     <g id="text_14">
      <!-- 2028/45 -->
      <g transform="translate(388.018457 334.13468) rotate(-55) scale(0.08 -0.08)">
       <use xlink:href="#DejaVuSans-32"/>
       <use xlink:href="#DejaVuSans-30" transform="translate(63.623047 0)"/>
       <use xlink:href="#DejaVuSans-32" transform="translate(127.246094 0)"/>
       <use xlink:href="#DejaVuSans-38" transform="translate(190.869141 0)"/>
       <use xlink:href="#DejaVuSans-2f" transform="translate(254.492188 0)"/>
       <use xlink:href="#DejaVuSans-34" transform="translate(288.183594 0)"/>
       <use xlink:href="#DejaVuSans-35" transform="translate(351.806641 0)"/>
      </g>
     </g>
    </g>
    <g id="xtick_15">
     <g id="line2d_15">
      <g>
       <use xlink:href="#m59dc4e9acf" x="420.479747" y="296.423534" style="stroke: #000000; stroke-width: 0.8"/>
      </g>
     </g>
     <g id="text_15">
      <!-- 2028/46 -->
      <g transform="translate(412.756618 334.13468) rotate(-55) scale(0.08 -0.08)">
       <use xlink:href="#DejaVuSans-32"/>
       <use xlink:href="#DejaVuSans-30" transform="translate(63.623047 0)"/>
       <use xlink:href="#DejaVuSans-32" transform="translate(127.246094 0)"/>
       <use xlink:href="#DejaVuSans-38" transform="translate(190.869141 0)"/>
       <use xlink:href="#DejaVuSans-2f" transform="translate(254.492188 0)"/>
       <use xlink:href="#DejaVuSans-34" transform="translate(288.183594 0)"/>
       <use xlink:href="#DejaVuSans-36" transform="translate(351.806641 0)"/>
      </g>
     </g>
    </g>
   </g>
   <g id="matplotlib.axis_2">
    <g id="ytick_1">
     <g id="line2d_16">
      <path d="M 45.94399 296.423534 
L 448.68125 296.423534 
" clip-path="url(#p942f121717)" style="fill: none; stroke: #b0b0b0; stroke-opacity: 0.15; stroke-width: 0.8; stroke-linecap: square"/>
     </g>
     <g id="line2d_17">
      <defs>
       <path id="m6041d592f6" d="M 0 0 
L -3.5 0 
" style="stroke: #000000; stroke-width: 0.8"/>
      </defs>
      <g>
       <use xlink:href="#m6041d592f6" x="45.94399" y="296.423534" style="stroke: #000000; stroke-width: 0.8"/>
      </g>
     </g>
     <g id="text_16">
      <!-- 0.00 -->
      <g transform="translate(16.678365 300.222752) scale(0.1 -0.1)">
       <defs>
        <path id="DejaVuSans-2e" d="M 684 794 
L 1344 794 
L 1344 0 
L 684 0 
L 684 794 
z
" transform="scale(0.015625)"/>
       </defs>
       <use xlink:href="#DejaVuSans-30"/>
       <use xlink:href="#DejaVuSans-2e" transform="translate(63.623047 0)"/>
       <use xlink:href="#DejaVuSans-30" transform="translate(95.410156 0)"/>
       <use xlink:href="#DejaVuSans-30" transform="translate(159.033203 0)"/>
      </g>
     </g>
    </g>
    <g id="ytick_2">
     <g id="line2d_18">
      <path d="M 45.94399 255.664584 
L 448.68125 255.664584 
" clip-path="url(#p942f121717)" style="fill: none; stroke: #b0b0b0; stroke-opacity: 0.15; stroke-width: 0.8; stroke-linecap: square"/>
     </g>
     <g id="line2d_19">
      <g>
       <use xlink:href="#m6041d592f6" x="45.94399" y="255.664584" style="stroke: #000000; stroke-width: 0.8"/>
      </g>
     </g>
     <g id="text_17">
      <!-- 0.05 -->
      <g transform="translate(16.678365 259.463802) scale(0.1 -0.1)">
       <use xlink:href="#DejaVuSans-30"/>
       <use xlink:href="#DejaVuSans-2e" transform="translate(63.623047 0)"/>
       <use xlink:href="#DejaVuSans-30" transform="translate(95.410156 0)"/>
       <use xlink:href="#DejaVuSans-35" transform="translate(159.033203 0)"/>
      </g>
     </g>
    </g>
    <g id="ytick_3">
     <g id="line2d_20">
      <path d="M 45.94399 214.905633 
L 448.68125 214.905633 
" clip-path="url(#p942f121717)" style="fill: none; stroke: #b0b0b0; stroke-opacity: 0.15; stroke-width: 0.8; stroke-linecap: square"/>
     </g>
     <g id="line2d_21">
      <g>
       <use xlink:href="#m6041d592f6" x="45.94399" y="214.905633" style="stroke: #000000; stroke-width: 0.8"/>
      </g>
     </g>
     <g id="text_18">
      <!-- 0.10 -->
      <g transform="translate(16.678365 218.704852) scale(0.1 -0.1)">
       <defs>
        <path id="DejaVuSans-31" d="M 794 531 
L 1825 531 
L 1825 4091 
L 703 3866 
L 703 4441 
L 1819 4666 
L 2450 4666 
L 2450 531 
L 3481 531 
L 3481 0 
L 794 0 
L 794 531 
z
" transform="scale(0.015625)"/>
       </defs>
       <use xlink:href="#DejaVuSans-30"/>
       <use xlink:href="#DejaVuSans-2e" transform="translate(63.623047 0)"/>
       <use xlink:href="#DejaVuSans-31" transform="translate(95.410156 0)"/>
       <use xlink:href="#DejaVuSans-30" transform="translate(159.033203 0)"/>
      </g>
     </g>
    </g>
    <g id="ytick_4">
     <g id="line2d_22">
      <path d="M 45.94399 174.146683 
L 448.68125 174.146683 
" clip-path="url(#p942f121717)" style="fill: none; stroke: #b0b0b0; stroke-opacity: 0.15; stroke-width: 0.8; stroke-linecap: square"/>
     </g>
     <g id="line2d_23">
      <g>
       <use xlink:href="#m6041d592f6" x="45.94399" y="174.146683" style="stroke: #000000; stroke-width: 0.8"/>
      </g>
     </g>
     <g id="text_19">
      <!-- 0.15 -->
      <g transform="translate(16.678365 177.945902) scale(0.1 -0.1)">
       <use xlink:href="#DejaVuSans-30"/>
       <use xlink:href="#DejaVuSans-2e" transform="translate(63.623047 0)"/>
       <use xlink:href="#DejaVuSans-31" transform="translate(95.410156 0)"/>
       <use xlink:href="#DejaVuSans-35" transform="translate(159.033203 0)"/>
      </g>
     </g>
    </g>
    <g id="ytick_5">
     <g id="line2d_24">
      <path d="M 45.94399 133.387733 
L 448.68125 133.387733 
" clip-path="url(#p942f121717)" style="fill: none; stroke: #b0b0b0; stroke-opacity: 0.15; stroke-width: 0.8; stroke-linecap: square"/>
     </g>
     <g id="line2d_25">
      <g>
       <use xlink:href="#m6041d592f6" x="45.94399" y="133.387733" style="stroke: #000000; stroke-width: 0.8"/>
      </g>
     </g>
     <g id="text_20">
      <!-- 0.20 -->
      <g transform="translate(16.678365 137.186952) scale(0.1 -0.1)">
       <use xlink:href="#DejaVuSans-30"/>
       <use xlink:href="#DejaVuSans-2e" transform="translate(63.623047 0)"/>
       <use xlink:href="#DejaVuSans-32" transform="translate(95.410156 0)"/>
       <use xlink:href="#DejaVuSans-30" transform="translate(159.033203 0)"/>
      </g>
     </g>
    </g>
    <g id="ytick_6">
     <g id="line2d_26">
      <path d="M 45.94399 92.628783 
L 448.68125 92.628783 
" clip-path="url(#p942f121717)" style="fill: none; stroke: #b0b0b0; stroke-opacity: 0.15; stroke-width: 0.8; stroke-linecap: square"/>
     </g>
     <g id="line2d_27">
      <g>
       <use xlink:href="#m6041d592f6" x="45.94399" y="92.628783" style="stroke: #000000; stroke-width: 0.8"/>
      </g>
     </g>
     <g id="text_21">
      <!-- 0.25 -->
      <g transform="translate(16.678365 96.428001) scale(0.1 -0.1)">
       <use xlink:href="#DejaVuSans-30"/>
       <use xlink:href="#DejaVuSans-2e" transform="translate(63.623047 0)"/>
       <use xlink:href="#DejaVuSans-32" transform="translate(95.410156 0)"/>
       <use xlink:href="#DejaVuSans-35" transform="translate(159.033203 0)"/>
      </g>
     </g>
    </g>
    <g id="ytick_7">
     <g id="line2d_28">
      <path d="M 45.94399 51.869833 
L 448.68125 51.869833 
" clip-path="url(#p942f121717)" style="fill: none; stroke: #b0b0b0; stroke-opacity: 0.15; stroke-width: 0.8; stroke-linecap: square"/>
     </g>
     <g id="line2d_29">
      <g>
       <use xlink:href="#m6041d592f6" x="45.94399" y="51.869833" style="stroke: #000000; stroke-width: 0.8"/>
      </g>
     </g>
     <g id="text_22">
      <!-- 0.30 -->
      <g transform="translate(16.678365 55.669051) scale(0.1 -0.1)">
       <use xlink:href="#DejaVuSans-30"/>
       <use xlink:href="#DejaVuSans-2e" transform="translate(63.623047 0)"/>
       <use xlink:href="#DejaVuSans-33" transform="translate(95.410156 0)"/>
       <use xlink:href="#DejaVuSans-30" transform="translate(159.033203 0)"/>
      </g>
     </g>
    </g>
    <g id="text_23">
     <!-- Smallest expert assignment share -->
     <g transform="translate(10.598678 254.500252) rotate(-90) scale(0.1 -0.1)">
      <defs>
       <path id="DejaVuSans-53" d="M 3425 4513 
L 3425 3897 
Q 3066 4069 2747 4153 
Q 2428 4238 2131 4238 
Q 1616 4238 1336 4038 
Q 1056 3838 1056 3469 
Q 1056 3159 1242 3001 
Q 1428 2844 1947 2747 
L 2328 2669 
Q 3034 2534 3370 2195 
Q 3706 1856 3706 1288 
Q 3706 609 3251 259 
Q 2797 -91 1919 -91 
Q 1588 -91 1214 -16 
Q 841 59 441 206 
L 441 856 
Q 825 641 1194 531 
Q 1563 422 1919 422 
Q 2459 422 2753 634 
Q 3047 847 3047 1241 
Q 3047 1584 2836 1778 
Q 2625 1972 2144 2069 
L 1759 2144 
Q 1053 2284 737 2584 
Q 422 2884 422 3419 
Q 422 4038 858 4394 
Q 1294 4750 2059 4750 
Q 2388 4750 2728 4690 
Q 3069 4631 3425 4513 
z
" transform="scale(0.015625)"/>
       <path id="DejaVuSans-6d" d="M 3328 2828 
Q 3544 3216 3844 3400 
Q 4144 3584 4550 3584 
Q 5097 3584 5394 3201 
Q 5691 2819 5691 2113 
L 5691 0 
L 5113 0 
L 5113 2094 
Q 5113 2597 4934 2840 
Q 4756 3084 4391 3084 
Q 3944 3084 3684 2787 
Q 3425 2491 3425 1978 
L 3425 0 
L 2847 0 
L 2847 2094 
Q 2847 2600 2669 2842 
Q 2491 3084 2119 3084 
Q 1678 3084 1418 2786 
Q 1159 2488 1159 1978 
L 1159 0 
L 581 0 
L 581 3500 
L 1159 3500 
L 1159 2956 
Q 1356 3278 1631 3431 
Q 1906 3584 2284 3584 
Q 2666 3584 2933 3390 
Q 3200 3197 3328 2828 
z
" transform="scale(0.015625)"/>
       <path id="DejaVuSans-61" d="M 2194 1759 
Q 1497 1759 1228 1600 
Q 959 1441 959 1056 
Q 959 750 1161 570 
Q 1363 391 1709 391 
Q 2188 391 2477 730 
Q 2766 1069 2766 1631 
L 2766 1759 
L 2194 1759 
z
M 3341 1997 
L 3341 0 
L 2766 0 
L 2766 531 
Q 2569 213 2275 61 
Q 1981 -91 1556 -91 
Q 1019 -91 701 211 
Q 384 513 384 1019 
Q 384 1609 779 1909 
Q 1175 2209 1959 2209 
L 2766 2209 
L 2766 2266 
Q 2766 2663 2505 2880 
Q 2244 3097 1772 3097 
Q 1472 3097 1187 3025 
Q 903 2953 641 2809 
L 641 3341 
Q 956 3463 1253 3523 
Q 1550 3584 1831 3584 
Q 2591 3584 2966 3190 
Q 3341 2797 3341 1997 
z
" transform="scale(0.015625)"/>
       <path id="DejaVuSans-6c" d="M 603 4863 
L 1178 4863 
L 1178 0 
L 603 0 
L 603 4863 
z
" transform="scale(0.015625)"/>
       <path id="DejaVuSans-65" d="M 3597 1894 
L 3597 1613 
L 953 1613 
Q 991 1019 1311 708 
Q 1631 397 2203 397 
Q 2534 397 2845 478 
Q 3156 559 3463 722 
L 3463 178 
Q 3153 47 2828 -22 
Q 2503 -91 2169 -91 
Q 1331 -91 842 396 
Q 353 884 353 1716 
Q 353 2575 817 3079 
Q 1281 3584 2069 3584 
Q 2775 3584 3186 3129 
Q 3597 2675 3597 1894 
z
M 3022 2063 
Q 3016 2534 2758 2815 
Q 2500 3097 2075 3097 
Q 1594 3097 1305 2825 
Q 1016 2553 972 2059 
L 3022 2063 
z
" transform="scale(0.015625)"/>
       <path id="DejaVuSans-73" d="M 2834 3397 
L 2834 2853 
Q 2591 2978 2328 3040 
Q 2066 3103 1784 3103 
Q 1356 3103 1142 2972 
Q 928 2841 928 2578 
Q 928 2378 1081 2264 
Q 1234 2150 1697 2047 
L 1894 2003 
Q 2506 1872 2764 1633 
Q 3022 1394 3022 966 
Q 3022 478 2636 193 
Q 2250 -91 1575 -91 
Q 1294 -91 989 -36 
Q 684 19 347 128 
L 347 722 
Q 666 556 975 473 
Q 1284 391 1588 391 
Q 1994 391 2212 530 
Q 2431 669 2431 922 
Q 2431 1156 2273 1281 
Q 2116 1406 1581 1522 
L 1381 1569 
Q 847 1681 609 1914 
Q 372 2147 372 2553 
Q 372 3047 722 3315 
Q 1072 3584 1716 3584 
Q 2034 3584 2315 3537 
Q 2597 3491 2834 3397 
z
" transform="scale(0.015625)"/>
       <path id="DejaVuSans-74" d="M 1172 4494 
L 1172 3500 
L 2356 3500 
L 2356 3053 
L 1172 3053 
L 1172 1153 
Q 1172 725 1289 603 
Q 1406 481 1766 481 
L 2356 481 
L 2356 0 
L 1766 0 
Q 1100 0 847 248 
Q 594 497 594 1153 
L 594 3053 
L 172 3053 
L 172 3500 
L 594 3500 
L 594 4494 
L 1172 4494 
z
" transform="scale(0.015625)"/>
       <path id="DejaVuSans-20" transform="scale(0.015625)"/>
       <path id="DejaVuSans-78" d="M 3513 3500 
L 2247 1797 
L 3578 0 
L 2900 0 
L 1881 1375 
L 863 0 
L 184 0 
L 1544 1831 
L 300 3500 
L 978 3500 
L 1906 2253 
L 2834 3500 
L 3513 3500 
z
" transform="scale(0.015625)"/>
       <path id="DejaVuSans-70" d="M 1159 525 
L 1159 -1331 
L 581 -1331 
L 581 3500 
L 1159 3500 
L 1159 2969 
Q 1341 3281 1617 3432 
Q 1894 3584 2278 3584 
Q 2916 3584 3314 3078 
Q 3713 2572 3713 1747 
Q 3713 922 3314 415 
Q 2916 -91 2278 -91 
Q 1894 -91 1617 61 
Q 1341 213 1159 525 
z
M 3116 1747 
Q 3116 2381 2855 2742 
Q 2594 3103 2138 3103 
Q 1681 3103 1420 2742 
Q 1159 2381 1159 1747 
Q 1159 1113 1420 752 
Q 1681 391 2138 391 
Q 2594 391 2855 752 
Q 3116 1113 3116 1747 
z
" transform="scale(0.015625)"/>
       <path id="DejaVuSans-72" d="M 2631 2963 
Q 2534 3019 2420 3045 
Q 2306 3072 2169 3072 
Q 1681 3072 1420 2755 
Q 1159 2438 1159 1844 
L 1159 0 
L 581 0 
L 581 3500 
L 1159 3500 
L 1159 2956 
Q 1341 3275 1631 3429 
Q 1922 3584 2338 3584 
Q 2397 3584 2469 3576 
Q 2541 3569 2628 3553 
L 2631 2963 
z
" transform="scale(0.015625)"/>
       <path id="DejaVuSans-69" d="M 603 3500 
L 1178 3500 
L 1178 0 
L 603 0 
L 603 3500 
z
M 603 4863 
L 1178 4863 
L 1178 4134 
L 603 4134 
L 603 4863 
z
" transform="scale(0.015625)"/>
       <path id="DejaVuSans-67" d="M 2906 1791 
Q 2906 2416 2648 2759 
Q 2391 3103 1925 3103 
Q 1463 3103 1205 2759 
Q 947 2416 947 1791 
Q 947 1169 1205 825 
Q 1463 481 1925 481 
Q 2391 481 2648 825 
Q 2906 1169 2906 1791 
z
M 3481 434 
Q 3481 -459 3084 -895 
Q 2688 -1331 1869 -1331 
Q 1566 -1331 1297 -1286 
Q 1028 -1241 775 -1147 
L 775 -588 
Q 1028 -725 1275 -790 
Q 1522 -856 1778 -856 
Q 2344 -856 2625 -561 
Q 2906 -266 2906 331 
L 2906 616 
Q 2728 306 2450 153 
Q 2172 0 1784 0 
Q 1141 0 747 490 
Q 353 981 353 1791 
Q 353 2603 747 3093 
Q 1141 3584 1784 3584 
Q 2172 3584 2450 3431 
Q 2728 3278 2906 2969 
L 2906 3500 
L 3481 3500 
L 3481 434 
z
" transform="scale(0.015625)"/>
       <path id="DejaVuSans-6e" d="M 3513 2113 
L 3513 0 
L 2938 0 
L 2938 2094 
Q 2938 2591 2744 2837 
Q 2550 3084 2163 3084 
Q 1697 3084 1428 2787 
Q 1159 2491 1159 1978 
L 1159 0 
L 581 0 
L 581 3500 
L 1159 3500 
L 1159 2956 
Q 1366 3272 1645 3428 
Q 1925 3584 2291 3584 
Q 2894 3584 3203 3211 
Q 3513 2838 3513 2113 
z
" transform="scale(0.015625)"/>
       <path id="DejaVuSans-68" d="M 3513 2113 
L 3513 0 
L 2938 0 
L 2938 2094 
Q 2938 2591 2744 2837 
Q 2550 3084 2163 3084 
Q 1697 3084 1428 2787 
Q 1159 2491 1159 1978 
L 1159 0 
L 581 0 
L 581 4863 
L 1159 4863 
L 1159 2956 
Q 1366 3272 1645 3428 
Q 1925 3584 2291 3584 
Q 2894 3584 3203 3211 
Q 3513 2838 3513 2113 
z
" transform="scale(0.015625)"/>
      </defs>
      <use xlink:href="#DejaVuSans-53"/>
      <use xlink:href="#DejaVuSans-6d" transform="translate(63.476562 0)"/>
      <use xlink:href="#DejaVuSans-61" transform="translate(160.888672 0)"/>
      <use xlink:href="#DejaVuSans-6c" transform="translate(222.167969 0)"/>
      <use xlink:href="#DejaVuSans-6c" transform="translate(249.951172 0)"/>
      <use xlink:href="#DejaVuSans-65" transform="translate(277.734375 0)"/>
      <use xlink:href="#DejaVuSans-73" transform="translate(339.257812 0)"/>
      <use xlink:href="#DejaVuSans-74" transform="translate(391.357422 0)"/>
      <use xlink:href="#DejaVuSans-20" transform="translate(430.566406 0)"/>
      <use xlink:href="#DejaVuSans-65" transform="translate(462.353516 0)"/>
      <use xlink:href="#DejaVuSans-78" transform="translate(522.126953 0)"/>
      <use xlink:href="#DejaVuSans-70" transform="translate(581.306641 0)"/>
      <use xlink:href="#DejaVuSans-65" transform="translate(644.783203 0)"/>
      <use xlink:href="#DejaVuSans-72" transform="translate(706.306641 0)"/>
      <use xlink:href="#DejaVuSans-74" transform="translate(747.419922 0)"/>
      <use xlink:href="#DejaVuSans-20" transform="translate(786.628906 0)"/>
      <use xlink:href="#DejaVuSans-61" transform="translate(818.416016 0)"/>
      <use xlink:href="#DejaVuSans-73" transform="translate(879.695312 0)"/>
      <use xlink:href="#DejaVuSans-73" transform="translate(931.794922 0)"/>
      <use xlink:href="#DejaVuSans-69" transform="translate(983.894531 0)"/>
      <use xlink:href="#DejaVuSans-67" transform="translate(1011.677734 0)"/>
      <use xlink:href="#DejaVuSans-6e" transform="translate(1075.154297 0)"/>
      <use xlink:href="#DejaVuSans-6d" transform="translate(1138.533203 0)"/>
      <use xlink:href="#DejaVuSans-65" transform="translate(1235.945312 0)"/>
      <use xlink:href="#DejaVuSans-6e" transform="translate(1297.46875 0)"/>
      <use xlink:href="#DejaVuSans-74" transform="translate(1360.847656 0)"/>
      <use xlink:href="#DejaVuSans-20" transform="translate(1400.056641 0)"/>
      <use xlink:href="#DejaVuSans-73" transform="translate(1431.84375 0)"/>
      <use xlink:href="#DejaVuSans-68" transform="translate(1483.943359 0)"/>
      <use xlink:href="#DejaVuSans-61" transform="translate(1547.322266 0)"/>
      <use xlink:href="#DejaVuSans-72" transform="translate(1608.601562 0)"/>
      <use xlink:href="#DejaVuSans-65" transform="translate(1647.464844 0)"/>
     </g>
    </g>
   </g>
   <g id="line2d_30">
    <path d="M 45.94399 92.628783 
L 448.68125 92.628783 
" clip-path="url(#p942f121717)" style="fill: none; stroke-dasharray: 5.55,2.4; stroke-dashoffset: 0; stroke: #7c8690; stroke-width: 1.5"/>
   </g>
   <g id="patch_18">
    <path d="M 45.94399 296.423534 
L 45.94399 41.680095 
" style="fill: none; stroke: #bac5ce; stroke-width: 0.8; stroke-linejoin: miter; stroke-linecap: square"/>
   </g>
   <g id="patch_19">
    <path d="M 45.94399 296.423534 
L 448.68125 296.423534 
" style="fill: none; stroke: #bac5ce; stroke-width: 0.8; stroke-linejoin: miter; stroke-linecap: square"/>
   </g>
   <g id="text_24">
    <!-- No expert is unused in the final run -->
    <g style="fill: #192936" transform="translate(126.958245 35.680095) scale(0.12 -0.12)">
     <defs>
      <path id="DejaVuSans-Bold-4e" d="M 588 4666 
L 1931 4666 
L 3628 1466 
L 3628 4666 
L 4769 4666 
L 4769 0 
L 3425 0 
L 1728 3200 
L 1728 0 
L 588 0 
L 588 4666 
z
" transform="scale(0.015625)"/>
      <path id="DejaVuSans-Bold-6f" d="M 2203 2784 
Q 1831 2784 1636 2517 
Q 1441 2250 1441 1747 
Q 1441 1244 1636 976 
Q 1831 709 2203 709 
Q 2569 709 2762 976 
Q 2956 1244 2956 1747 
Q 2956 2250 2762 2517 
Q 2569 2784 2203 2784 
z
M 2203 3584 
Q 3106 3584 3614 3096 
Q 4122 2609 4122 1747 
Q 4122 884 3614 396 
Q 3106 -91 2203 -91 
Q 1297 -91 786 396 
Q 275 884 275 1747 
Q 275 2609 786 3096 
Q 1297 3584 2203 3584 
z
" transform="scale(0.015625)"/>
      <path id="DejaVuSans-Bold-20" transform="scale(0.015625)"/>
      <path id="DejaVuSans-Bold-65" d="M 4031 1759 
L 4031 1441 
L 1416 1441 
Q 1456 1047 1700 850 
Q 1944 653 2381 653 
Q 2734 653 3104 758 
Q 3475 863 3866 1075 
L 3866 213 
Q 3469 63 3072 -14 
Q 2675 -91 2278 -91 
Q 1328 -91 801 392 
Q 275 875 275 1747 
Q 275 2603 792 3093 
Q 1309 3584 2216 3584 
Q 3041 3584 3536 3087 
Q 4031 2591 4031 1759 
z
M 2881 2131 
Q 2881 2450 2695 2645 
Q 2509 2841 2209 2841 
Q 1884 2841 1681 2658 
Q 1478 2475 1428 2131 
L 2881 2131 
z
" transform="scale(0.015625)"/>
      <path id="DejaVuSans-Bold-78" d="M 1422 1791 
L 159 3500 
L 1344 3500 
L 2059 2463 
L 2784 3500 
L 3969 3500 
L 2706 1797 
L 4031 0 
L 2847 0 
L 2059 1106 
L 1281 0 
L 97 0 
L 1422 1791 
z
" transform="scale(0.015625)"/>
      <path id="DejaVuSans-Bold-70" d="M 1656 506 
L 1656 -1331 
L 538 -1331 
L 538 3500 
L 1656 3500 
L 1656 2988 
Q 1888 3294 2169 3439 
Q 2450 3584 2816 3584 
Q 3463 3584 3878 3070 
Q 4294 2556 4294 1747 
Q 4294 938 3878 423 
Q 3463 -91 2816 -91 
Q 2450 -91 2169 54 
Q 1888 200 1656 506 
z
M 2400 2772 
Q 2041 2772 1848 2508 
Q 1656 2244 1656 1747 
Q 1656 1250 1848 986 
Q 2041 722 2400 722 
Q 2759 722 2948 984 
Q 3138 1247 3138 1747 
Q 3138 2247 2948 2509 
Q 2759 2772 2400 2772 
z
" transform="scale(0.015625)"/>
      <path id="DejaVuSans-Bold-72" d="M 3138 2547 
Q 2991 2616 2845 2648 
Q 2700 2681 2553 2681 
Q 2122 2681 1889 2404 
Q 1656 2128 1656 1613 
L 1656 0 
L 538 0 
L 538 3500 
L 1656 3500 
L 1656 2925 
Q 1872 3269 2151 3426 
Q 2431 3584 2822 3584 
Q 2878 3584 2943 3579 
Q 3009 3575 3134 3559 
L 3138 2547 
z
" transform="scale(0.015625)"/>
      <path id="DejaVuSans-Bold-74" d="M 1759 4494 
L 1759 3500 
L 2913 3500 
L 2913 2700 
L 1759 2700 
L 1759 1216 
Q 1759 972 1856 886 
Q 1953 800 2241 800 
L 2816 800 
L 2816 0 
L 1856 0 
Q 1194 0 917 276 
Q 641 553 641 1216 
L 641 2700 
L 84 2700 
L 84 3500 
L 641 3500 
L 641 4494 
L 1759 4494 
z
" transform="scale(0.015625)"/>
      <path id="DejaVuSans-Bold-69" d="M 538 3500 
L 1656 3500 
L 1656 0 
L 538 0 
L 538 3500 
z
M 538 4863 
L 1656 4863 
L 1656 3950 
L 538 3950 
L 538 4863 
z
" transform="scale(0.015625)"/>
      <path id="DejaVuSans-Bold-73" d="M 3272 3391 
L 3272 2541 
Q 2913 2691 2578 2766 
Q 2244 2841 1947 2841 
Q 1628 2841 1473 2761 
Q 1319 2681 1319 2516 
Q 1319 2381 1436 2309 
Q 1553 2238 1856 2203 
L 2053 2175 
Q 2913 2066 3209 1816 
Q 3506 1566 3506 1031 
Q 3506 472 3093 190 
Q 2681 -91 1863 -91 
Q 1516 -91 1145 -36 
Q 775 19 384 128 
L 384 978 
Q 719 816 1070 734 
Q 1422 653 1784 653 
Q 2113 653 2278 743 
Q 2444 834 2444 1013 
Q 2444 1163 2330 1236 
Q 2216 1309 1875 1350 
L 1678 1375 
Q 931 1469 631 1722 
Q 331 1975 331 2491 
Q 331 3047 712 3315 
Q 1094 3584 1881 3584 
Q 2191 3584 2531 3537 
Q 2872 3491 3272 3391 
z
" transform="scale(0.015625)"/>
      <path id="DejaVuSans-Bold-75" d="M 500 1363 
L 500 3500 
L 1625 3500 
L 1625 3150 
Q 1625 2866 1622 2436 
Q 1619 2006 1619 1863 
Q 1619 1441 1641 1255 
Q 1663 1069 1716 984 
Q 1784 875 1895 815 
Q 2006 756 2150 756 
Q 2500 756 2700 1025 
Q 2900 1294 2900 1772 
L 2900 3500 
L 4019 3500 
L 4019 0 
L 2900 0 
L 2900 506 
Q 2647 200 2364 54 
Q 2081 -91 1741 -91 
Q 1134 -91 817 281 
Q 500 653 500 1363 
z
" transform="scale(0.015625)"/>
      <path id="DejaVuSans-Bold-6e" d="M 4056 2131 
L 4056 0 
L 2931 0 
L 2931 347 
L 2931 1631 
Q 2931 2084 2911 2256 
Q 2891 2428 2841 2509 
Q 2775 2619 2662 2680 
Q 2550 2741 2406 2741 
Q 2056 2741 1856 2470 
Q 1656 2200 1656 1722 
L 1656 0 
L 538 0 
L 538 3500 
L 1656 3500 
L 1656 2988 
Q 1909 3294 2193 3439 
Q 2478 3584 2822 3584 
Q 3428 3584 3742 3212 
Q 4056 2841 4056 2131 
z
" transform="scale(0.015625)"/>
      <path id="DejaVuSans-Bold-64" d="M 2919 2988 
L 2919 4863 
L 4044 4863 
L 4044 0 
L 2919 0 
L 2919 506 
Q 2688 197 2409 53 
Q 2131 -91 1766 -91 
Q 1119 -91 703 423 
Q 288 938 288 1747 
Q 288 2556 703 3070 
Q 1119 3584 1766 3584 
Q 2128 3584 2408 3439 
Q 2688 3294 2919 2988 
z
M 2181 722 
Q 2541 722 2730 984 
Q 2919 1247 2919 1747 
Q 2919 2247 2730 2509 
Q 2541 2772 2181 2772 
Q 1825 2772 1636 2509 
Q 1447 2247 1447 1747 
Q 1447 1247 1636 984 
Q 1825 722 2181 722 
z
" transform="scale(0.015625)"/>
      <path id="DejaVuSans-Bold-68" d="M 4056 2131 
L 4056 0 
L 2931 0 
L 2931 347 
L 2931 1625 
Q 2931 2084 2911 2256 
Q 2891 2428 2841 2509 
Q 2775 2619 2662 2680 
Q 2550 2741 2406 2741 
Q 2056 2741 1856 2470 
Q 1656 2200 1656 1722 
L 1656 0 
L 538 0 
L 538 4863 
L 1656 4863 
L 1656 2988 
Q 1909 3294 2193 3439 
Q 2478 3584 2822 3584 
Q 3428 3584 3742 3212 
Q 4056 2841 4056 2131 
z
" transform="scale(0.015625)"/>
      <path id="DejaVuSans-Bold-66" d="M 2841 4863 
L 2841 4128 
L 2222 4128 
Q 1984 4128 1890 4042 
Q 1797 3956 1797 3744 
L 1797 3500 
L 2753 3500 
L 2753 2700 
L 1797 2700 
L 1797 0 
L 678 0 
L 678 2700 
L 122 2700 
L 122 3500 
L 678 3500 
L 678 3744 
Q 678 4316 997 4589 
Q 1316 4863 1984 4863 
L 2841 4863 
z
" transform="scale(0.015625)"/>
      <path id="DejaVuSans-Bold-61" d="M 2106 1575 
Q 1756 1575 1579 1456 
Q 1403 1338 1403 1106 
Q 1403 894 1545 773 
Q 1688 653 1941 653 
Q 2256 653 2472 879 
Q 2688 1106 2688 1447 
L 2688 1575 
L 2106 1575 
z
M 3816 1997 
L 3816 0 
L 2688 0 
L 2688 519 
Q 2463 200 2181 54 
Q 1900 -91 1497 -91 
Q 953 -91 614 226 
Q 275 544 275 1050 
Q 275 1666 698 1953 
Q 1122 2241 2028 2241 
L 2688 2241 
L 2688 2328 
Q 2688 2594 2478 2717 
Q 2269 2841 1825 2841 
Q 1466 2841 1156 2769 
Q 847 2697 581 2553 
L 581 3406 
Q 941 3494 1303 3539 
Q 1666 3584 2028 3584 
Q 2975 3584 3395 3211 
Q 3816 2838 3816 1997 
z
" transform="scale(0.015625)"/>
      <path id="DejaVuSans-Bold-6c" d="M 538 4863 
L 1656 4863 
L 1656 0 
L 538 0 
L 538 4863 
z
" transform="scale(0.015625)"/>
     </defs>
     <use xlink:href="#DejaVuSans-Bold-4e"/>
     <use xlink:href="#DejaVuSans-Bold-6f" transform="translate(83.691406 0)"/>
     <use xlink:href="#DejaVuSans-Bold-20" transform="translate(152.392578 0)"/>
     <use xlink:href="#DejaVuSans-Bold-65" transform="translate(187.207031 0)"/>
     <use xlink:href="#DejaVuSans-Bold-78" transform="translate(255.029297 0)"/>
     <use xlink:href="#DejaVuSans-Bold-70" transform="translate(319.53125 0)"/>
     <use xlink:href="#DejaVuSans-Bold-65" transform="translate(391.113281 0)"/>
     <use xlink:href="#DejaVuSans-Bold-72" transform="translate(458.935547 0)"/>
     <use xlink:href="#DejaVuSans-Bold-74" transform="translate(508.251953 0)"/>
     <use xlink:href="#DejaVuSans-Bold-20" transform="translate(556.054688 0)"/>
     <use xlink:href="#DejaVuSans-Bold-69" transform="translate(590.869141 0)"/>
     <use xlink:href="#DejaVuSans-Bold-73" transform="translate(625.146484 0)"/>
     <use xlink:href="#DejaVuSans-Bold-20" transform="translate(684.667969 0)"/>
     <use xlink:href="#DejaVuSans-Bold-75" transform="translate(719.482422 0)"/>
     <use xlink:href="#DejaVuSans-Bold-6e" transform="translate(790.673828 0)"/>
     <use xlink:href="#DejaVuSans-Bold-75" transform="translate(861.865234 0)"/>
     <use xlink:href="#DejaVuSans-Bold-73" transform="translate(933.056641 0)"/>
     <use xlink:href="#DejaVuSans-Bold-65" transform="translate(992.578125 0)"/>
     <use xlink:href="#DejaVuSans-Bold-64" transform="translate(1060.400391 0)"/>
     <use xlink:href="#DejaVuSans-Bold-20" transform="translate(1131.982422 0)"/>
     <use xlink:href="#DejaVuSans-Bold-69" transform="translate(1166.796875 0)"/>
     <use xlink:href="#DejaVuSans-Bold-6e" transform="translate(1201.074219 0)"/>
     <use xlink:href="#DejaVuSans-Bold-20" transform="translate(1272.265625 0)"/>
     <use xlink:href="#DejaVuSans-Bold-74" transform="translate(1307.080078 0)"/>
     <use xlink:href="#DejaVuSans-Bold-68" transform="translate(1354.882812 0)"/>
     <use xlink:href="#DejaVuSans-Bold-65" transform="translate(1426.074219 0)"/>
     <use xlink:href="#DejaVuSans-Bold-20" transform="translate(1493.896484 0)"/>
     <use xlink:href="#DejaVuSans-Bold-66" transform="translate(1528.710938 0)"/>
     <use xlink:href="#DejaVuSans-Bold-69" transform="translate(1572.216797 0)"/>
     <use xlink:href="#DejaVuSans-Bold-6e" transform="translate(1606.494141 0)"/>
     <use xlink:href="#DejaVuSans-Bold-61" transform="translate(1677.685547 0)"/>
     <use xlink:href="#DejaVuSans-Bold-6c" transform="translate(1745.166016 0)"/>
     <use xlink:href="#DejaVuSans-Bold-20" transform="translate(1779.443359 0)"/>
     <use xlink:href="#DejaVuSans-Bold-72" transform="translate(1814.257812 0)"/>
     <use xlink:href="#DejaVuSans-Bold-75" transform="translate(1863.574219 0)"/>
     <use xlink:href="#DejaVuSans-Bold-6e" transform="translate(1934.765625 0)"/>
    </g>
   </g>
   <g id="legend_1">
    <g id="line2d_31">
     <path d="M 362.5675 52.158845 
L 370.5675 52.158845 
L 378.5675 52.158845 
" style="fill: none; stroke-dasharray: 5.55,2.4; stroke-dashoffset: 0; stroke: #7c8690; stroke-width: 1.5"/>
    </g>
    <g id="text_25">
     <!-- Uniform share -->
     <g style="fill: #192936" transform="translate(384.9675 54.958845) scale(0.08 -0.08)">
      <defs>
       <path id="DejaVuSans-55" d="M 556 4666 
L 1191 4666 
L 1191 1831 
Q 1191 1081 1462 751 
Q 1734 422 2344 422 
Q 2950 422 3222 751 
Q 3494 1081 3494 1831 
L 3494 4666 
L 4128 4666 
L 4128 1753 
Q 4128 841 3676 375 
Q 3225 -91 2344 -91 
Q 1459 -91 1007 375 
Q 556 841 556 1753 
L 556 4666 
z
" transform="scale(0.015625)"/>
       <path id="DejaVuSans-66" d="M 2375 4863 
L 2375 4384 
L 1825 4384 
Q 1516 4384 1395 4259 
Q 1275 4134 1275 3809 
L 1275 3500 
L 2222 3500 
L 2222 3053 
L 1275 3053 
L 1275 0 
L 697 0 
L 697 3053 
L 147 3053 
L 147 3500 
L 697 3500 
L 697 3744 
Q 697 4328 969 4595 
Q 1241 4863 1831 4863 
L 2375 4863 
z
" transform="scale(0.015625)"/>
       <path id="DejaVuSans-6f" d="M 1959 3097 
Q 1497 3097 1228 2736 
Q 959 2375 959 1747 
Q 959 1119 1226 758 
Q 1494 397 1959 397 
Q 2419 397 2687 759 
Q 2956 1122 2956 1747 
Q 2956 2369 2687 2733 
Q 2419 3097 1959 3097 
z
M 1959 3584 
Q 2709 3584 3137 3096 
Q 3566 2609 3566 1747 
Q 3566 888 3137 398 
Q 2709 -91 1959 -91 
Q 1206 -91 779 398 
Q 353 888 353 1747 
Q 353 2609 779 3096 
Q 1206 3584 1959 3584 
z
" transform="scale(0.015625)"/>
      </defs>
      <use xlink:href="#DejaVuSans-55"/>
      <use xlink:href="#DejaVuSans-6e" transform="translate(73.193359 0)"/>
      <use xlink:href="#DejaVuSans-69" transform="translate(136.572266 0)"/>
      <use xlink:href="#DejaVuSans-66" transform="translate(164.355469 0)"/>
      <use xlink:href="#DejaVuSans-6f" transform="translate(199.560547 0)"/>
      <use xlink:href="#DejaVuSans-72" transform="translate(260.742188 0)"/>
      <use xlink:href="#DejaVuSans-6d" transform="translate(300.105469 0)"/>
      <use xlink:href="#DejaVuSans-20" transform="translate(397.517578 0)"/>
      <use xlink:href="#DejaVuSans-73" transform="translate(429.304688 0)"/>
      <use xlink:href="#DejaVuSans-68" transform="translate(481.404297 0)"/>
      <use xlink:href="#DejaVuSans-61" transform="translate(544.783203 0)"/>
      <use xlink:href="#DejaVuSans-72" transform="translate(606.0625 0)"/>
      <use xlink:href="#DejaVuSans-65" transform="translate(644.925781 0)"/>
     </g>
    </g>
   </g>
  </g>
  <g id="axes_2">
   <g id="patch_20">
    <path d="M 494.2625 296.423534 
L 896.99976 296.423534 
L 896.99976 41.680095 
L 494.2625 41.680095 
z
" style="fill: #ffffff"/>
   </g>
   <g id="matplotlib.axis_3">
    <g id="xtick_16">
     <g id="line2d_32">
      <g>
       <use xlink:href="#m59dc4e9acf" x="512.568739" y="296.423534" style="stroke: #000000; stroke-width: 0.8"/>
      </g>
     </g>
     <g id="text_26">
      <!-- 0 -->
      <g transform="translate(509.387489 311.021971) scale(0.1 -0.1)">
       <use xlink:href="#DejaVuSans-30"/>
      </g>
     </g>
    </g>
    <g id="xtick_17">
     <g id="line2d_33">
      <g>
       <use xlink:href="#m59dc4e9acf" x="558.334337" y="296.423534" style="stroke: #000000; stroke-width: 0.8"/>
      </g>
     </g>
     <g id="text_27">
      <!-- 10 -->
      <g transform="translate(551.971837 311.021971) scale(0.1 -0.1)">
       <use xlink:href="#DejaVuSans-31"/>
       <use xlink:href="#DejaVuSans-30" transform="translate(63.623047 0)"/>
      </g>
     </g>
    </g>
    <g id="xtick_18">
     <g id="line2d_34">
      <g>
       <use xlink:href="#m59dc4e9acf" x="604.099935" y="296.423534" style="stroke: #000000; stroke-width: 0.8"/>
      </g>
     </g>
     <g id="text_28">
      <!-- 20 -->
      <g transform="translate(597.737435 311.021971) scale(0.1 -0.1)">
       <use xlink:href="#DejaVuSans-32"/>
       <use xlink:href="#DejaVuSans-30" transform="translate(63.623047 0)"/>
      </g>
     </g>
    </g>
    <g id="xtick_19">
     <g id="line2d_35">
      <g>
       <use xlink:href="#m59dc4e9acf" x="649.865532" y="296.423534" style="stroke: #000000; stroke-width: 0.8"/>
      </g>
     </g>
     <g id="text_29">
      <!-- 30 -->
      <g transform="translate(643.503032 311.021971) scale(0.1 -0.1)">
       <use xlink:href="#DejaVuSans-33"/>
       <use xlink:href="#DejaVuSans-30" transform="translate(63.623047 0)"/>
      </g>
     </g>
    </g>
    <g id="xtick_20">
     <g id="line2d_36">
      <g>
       <use xlink:href="#m59dc4e9acf" x="695.63113" y="296.423534" style="stroke: #000000; stroke-width: 0.8"/>
      </g>
     </g>
     <g id="text_30">
      <!-- 40 -->
      <g transform="translate(689.26863 311.021971) scale(0.1 -0.1)">
       <use xlink:href="#DejaVuSans-34"/>
       <use xlink:href="#DejaVuSans-30" transform="translate(63.623047 0)"/>
      </g>
     </g>
    </g>
    <g id="xtick_21">
     <g id="line2d_37">
      <g>
       <use xlink:href="#m59dc4e9acf" x="741.396728" y="296.423534" style="stroke: #000000; stroke-width: 0.8"/>
      </g>
     </g>
     <g id="text_31">
      <!-- 50 -->
      <g transform="translate(735.034228 311.021971) scale(0.1 -0.1)">
       <use xlink:href="#DejaVuSans-35"/>
       <use xlink:href="#DejaVuSans-30" transform="translate(63.623047 0)"/>
      </g>
     </g>
    </g>
    <g id="xtick_22">
     <g id="line2d_38">
      <g>
       <use xlink:href="#m59dc4e9acf" x="787.162325" y="296.423534" style="stroke: #000000; stroke-width: 0.8"/>
      </g>
     </g>
     <g id="text_32">
      <!-- 60 -->
      <g transform="translate(780.799825 311.021971) scale(0.1 -0.1)">
       <use xlink:href="#DejaVuSans-36"/>
       <use xlink:href="#DejaVuSans-30" transform="translate(63.623047 0)"/>
      </g>
     </g>
    </g>
    <g id="xtick_23">
     <g id="line2d_39">
      <g>
       <use xlink:href="#m59dc4e9acf" x="832.927923" y="296.423534" style="stroke: #000000; stroke-width: 0.8"/>
      </g>
     </g>
     <g id="text_33">
      <!-- 70 -->
      <g transform="translate(826.565423 311.021971) scale(0.1 -0.1)">
       <use xlink:href="#DejaVuSans-37"/>
       <use xlink:href="#DejaVuSans-30" transform="translate(63.623047 0)"/>
      </g>
     </g>
    </g>
    <g id="xtick_24">
     <g id="line2d_40">
      <g>
       <use xlink:href="#m59dc4e9acf" x="878.693521" y="296.423534" style="stroke: #000000; stroke-width: 0.8"/>
      </g>
     </g>
     <g id="text_34">
      <!-- 80 -->
      <g transform="translate(872.331021 311.021971) scale(0.1 -0.1)">
       <use xlink:href="#DejaVuSans-38"/>
       <use xlink:href="#DejaVuSans-30" transform="translate(63.623047 0)"/>
      </g>
     </g>
    </g>
    <g id="text_35">
     <!-- Epochs after conversion -->
     <g transform="translate(635.417849 324.700096) scale(0.1 -0.1)">
      <defs>
       <path id="DejaVuSans-45" d="M 628 4666 
L 3578 4666 
L 3578 4134 
L 1259 4134 
L 1259 2753 
L 3481 2753 
L 3481 2222 
L 1259 2222 
L 1259 531 
L 3634 531 
L 3634 0 
L 628 0 
L 628 4666 
z
" transform="scale(0.015625)"/>
       <path id="DejaVuSans-63" d="M 3122 3366 
L 3122 2828 
Q 2878 2963 2633 3030 
Q 2388 3097 2138 3097 
Q 1578 3097 1268 2742 
Q 959 2388 959 1747 
Q 959 1106 1268 751 
Q 1578 397 2138 397 
Q 2388 397 2633 464 
Q 2878 531 3122 666 
L 3122 134 
Q 2881 22 2623 -34 
Q 2366 -91 2075 -91 
Q 1284 -91 818 406 
Q 353 903 353 1747 
Q 353 2603 823 3093 
Q 1294 3584 2113 3584 
Q 2378 3584 2631 3529 
Q 2884 3475 3122 3366 
z
" transform="scale(0.015625)"/>
       <path id="DejaVuSans-76" d="M 191 3500 
L 800 3500 
L 1894 563 
L 2988 3500 
L 3597 3500 
L 2284 0 
L 1503 0 
L 191 3500 
z
" transform="scale(0.015625)"/>
      </defs>
      <use xlink:href="#DejaVuSans-45"/>
      <use xlink:href="#DejaVuSans-70" transform="translate(63.183594 0)"/>
      <use xlink:href="#DejaVuSans-6f" transform="translate(126.660156 0)"/>
      <use xlink:href="#DejaVuSans-63" transform="translate(187.841797 0)"/>
      <use xlink:href="#DejaVuSans-68" transform="translate(242.822266 0)"/>
      <use xlink:href="#DejaVuSans-73" transform="translate(306.201172 0)"/>
      <use xlink:href="#DejaVuSans-20" transform="translate(358.300781 0)"/>
      <use xlink:href="#DejaVuSans-61" transform="translate(390.087891 0)"/>
      <use xlink:href="#DejaVuSans-66" transform="translate(451.367188 0)"/>
      <use xlink:href="#DejaVuSans-74" transform="translate(484.822266 0)"/>
      <use xlink:href="#DejaVuSans-65" transform="translate(524.03125 0)"/>
      <use xlink:href="#DejaVuSans-72" transform="translate(585.554688 0)"/>
      <use xlink:href="#DejaVuSans-20" transform="translate(626.667969 0)"/>
      <use xlink:href="#DejaVuSans-63" transform="translate(658.455078 0)"/>
      <use xlink:href="#DejaVuSans-6f" transform="translate(713.435547 0)"/>
      <use xlink:href="#DejaVuSans-6e" transform="translate(774.617188 0)"/>
      <use xlink:href="#DejaVuSans-76" transform="translate(837.996094 0)"/>
      <use xlink:href="#DejaVuSans-65" transform="translate(897.175781 0)"/>
      <use xlink:href="#DejaVuSans-72" transform="translate(958.699219 0)"/>
      <use xlink:href="#DejaVuSans-73" transform="translate(999.8125 0)"/>
      <use xlink:href="#DejaVuSans-69" transform="translate(1051.912109 0)"/>
      <use xlink:href="#DejaVuSans-6f" transform="translate(1079.695312 0)"/>
      <use xlink:href="#DejaVuSans-6e" transform="translate(1140.876953 0)"/>
     </g>
    </g>
   </g>
   <g id="matplotlib.axis_4">
    <g id="ytick_8">
     <g id="line2d_41">
      <path d="M 494.2625 286.163859 
L 896.99976 286.163859 
" clip-path="url(#p13deb4dcb5)" style="fill: none; stroke: #b0b0b0; stroke-opacity: 0.15; stroke-width: 0.8; stroke-linecap: square"/>
     </g>
     <g id="line2d_42">
      <g>
       <use xlink:href="#m6041d592f6" x="494.2625" y="286.163859" style="stroke: #000000; stroke-width: 0.8"/>
      </g>
     </g>
     <g id="text_36">
      <!-- 0.0 -->
      <g transform="translate(471.359375 289.963078) scale(0.1 -0.1)">
       <use xlink:href="#DejaVuSans-30"/>
       <use xlink:href="#DejaVuSans-2e" transform="translate(63.623047 0)"/>
       <use xlink:href="#DejaVuSans-30" transform="translate(95.410156 0)"/>
      </g>
     </g>
    </g>
    <g id="ytick_9">
     <g id="line2d_43">
      <path d="M 494.2625 238.747226 
L 896.99976 238.747226 
" clip-path="url(#p13deb4dcb5)" style="fill: none; stroke: #b0b0b0; stroke-opacity: 0.15; stroke-width: 0.8; stroke-linecap: square"/>
     </g>
     <g id="line2d_44">
      <g>
       <use xlink:href="#m6041d592f6" x="494.2625" y="238.747226" style="stroke: #000000; stroke-width: 0.8"/>
      </g>
     </g>
     <g id="text_37">
      <!-- 0.1 -->
      <g transform="translate(471.359375 242.546445) scale(0.1 -0.1)">
       <use xlink:href="#DejaVuSans-30"/>
       <use xlink:href="#DejaVuSans-2e" transform="translate(63.623047 0)"/>
       <use xlink:href="#DejaVuSans-31" transform="translate(95.410156 0)"/>
      </g>
     </g>
    </g>
    <g id="ytick_10">
     <g id="line2d_45">
      <path d="M 494.2625 191.330594 
L 896.99976 191.330594 
" clip-path="url(#p13deb4dcb5)" style="fill: none; stroke: #b0b0b0; stroke-opacity: 0.15; stroke-width: 0.8; stroke-linecap: square"/>
     </g>
     <g id="line2d_46">
      <g>
       <use xlink:href="#m6041d592f6" x="494.2625" y="191.330594" style="stroke: #000000; stroke-width: 0.8"/>
      </g>
     </g>
     <g id="text_38">
      <!-- 0.2 -->
      <g transform="translate(471.359375 195.129813) scale(0.1 -0.1)">
       <use xlink:href="#DejaVuSans-30"/>
       <use xlink:href="#DejaVuSans-2e" transform="translate(63.623047 0)"/>
       <use xlink:href="#DejaVuSans-32" transform="translate(95.410156 0)"/>
      </g>
     </g>
    </g>
    <g id="ytick_11">
     <g id="line2d_47">
      <path d="M 494.2625 143.913961 
L 896.99976 143.913961 
" clip-path="url(#p13deb4dcb5)" style="fill: none; stroke: #b0b0b0; stroke-opacity: 0.15; stroke-width: 0.8; stroke-linecap: square"/>
     </g>
     <g id="line2d_48">
      <g>
       <use xlink:href="#m6041d592f6" x="494.2625" y="143.913961" style="stroke: #000000; stroke-width: 0.8"/>
      </g>
     </g>
     <g id="text_39">
      <!-- 0.3 -->
      <g transform="translate(471.359375 147.71318) scale(0.1 -0.1)">
       <use xlink:href="#DejaVuSans-30"/>
       <use xlink:href="#DejaVuSans-2e" transform="translate(63.623047 0)"/>
       <use xlink:href="#DejaVuSans-33" transform="translate(95.410156 0)"/>
      </g>
     </g>
    </g>
    <g id="ytick_12">
     <g id="line2d_49">
      <path d="M 494.2625 96.497329 
L 896.99976 96.497329 
" clip-path="url(#p13deb4dcb5)" style="fill: none; stroke: #b0b0b0; stroke-opacity: 0.15; stroke-width: 0.8; stroke-linecap: square"/>
     </g>
     <g id="line2d_50">
      <g>
       <use xlink:href="#m6041d592f6" x="494.2625" y="96.497329" style="stroke: #000000; stroke-width: 0.8"/>
      </g>
     </g>
     <g id="text_40">
      <!-- 0.4 -->
      <g transform="translate(471.359375 100.296548) scale(0.1 -0.1)">
       <use xlink:href="#DejaVuSans-30"/>
       <use xlink:href="#DejaVuSans-2e" transform="translate(63.623047 0)"/>
       <use xlink:href="#DejaVuSans-34" transform="translate(95.410156 0)"/>
      </g>
     </g>
    </g>
    <g id="ytick_13">
     <g id="line2d_51">
      <path d="M 494.2625 49.080696 
L 896.99976 49.080696 
" clip-path="url(#p13deb4dcb5)" style="fill: none; stroke: #b0b0b0; stroke-opacity: 0.15; stroke-width: 0.8; stroke-linecap: square"/>
     </g>
     <g id="line2d_52">
      <g>
       <use xlink:href="#m6041d592f6" x="494.2625" y="49.080696" style="stroke: #000000; stroke-width: 0.8"/>
      </g>
     </g>
     <g id="text_41">
      <!-- 0.5 -->
      <g transform="translate(471.359375 52.879915) scale(0.1 -0.1)">
       <use xlink:href="#DejaVuSans-30"/>
       <use xlink:href="#DejaVuSans-2e" transform="translate(63.623047 0)"/>
       <use xlink:href="#DejaVuSans-35" transform="translate(95.410156 0)"/>
      </g>
     </g>
    </g>
    <g id="text_42">
     <!-- Share of selected assignments -->
     <g transform="translate(465.279688 245.858064) rotate(-90) scale(0.1 -0.1)">
      <defs>
       <path id="DejaVuSans-64" d="M 2906 2969 
L 2906 4863 
L 3481 4863 
L 3481 0 
L 2906 0 
L 2906 525 
Q 2725 213 2448 61 
Q 2172 -91 1784 -91 
Q 1150 -91 751 415 
Q 353 922 353 1747 
Q 353 2572 751 3078 
Q 1150 3584 1784 3584 
Q 2172 3584 2448 3432 
Q 2725 3281 2906 2969 
z
M 947 1747 
Q 947 1113 1208 752 
Q 1469 391 1925 391 
Q 2381 391 2643 752 
Q 2906 1113 2906 1747 
Q 2906 2381 2643 2742 
Q 2381 3103 1925 3103 
Q 1469 3103 1208 2742 
Q 947 2381 947 1747 
z
" transform="scale(0.015625)"/>
      </defs>
      <use xlink:href="#DejaVuSans-53"/>
      <use xlink:href="#DejaVuSans-68" transform="translate(63.476562 0)"/>
      <use xlink:href="#DejaVuSans-61" transform="translate(126.855469 0)"/>
      <use xlink:href="#DejaVuSans-72" transform="translate(188.134766 0)"/>
      <use xlink:href="#DejaVuSans-65" transform="translate(226.998047 0)"/>
      <use xlink:href="#DejaVuSans-20" transform="translate(288.521484 0)"/>
      <use xlink:href="#DejaVuSans-6f" transform="translate(320.308594 0)"/>
      <use xlink:href="#DejaVuSans-66" transform="translate(381.490234 0)"/>
      <use xlink:href="#DejaVuSans-20" transform="translate(416.695312 0)"/>
      <use xlink:href="#DejaVuSans-73" transform="translate(448.482422 0)"/>
      <use xlink:href="#DejaVuSans-65" transform="translate(500.582031 0)"/>
      <use xlink:href="#DejaVuSans-6c" transform="translate(562.105469 0)"/>
      <use xlink:href="#DejaVuSans-65" transform="translate(589.888672 0)"/>
      <use xlink:href="#DejaVuSans-63" transform="translate(651.412109 0)"/>
      <use xlink:href="#DejaVuSans-74" transform="translate(706.392578 0)"/>
      <use xlink:href="#DejaVuSans-65" transform="translate(745.601562 0)"/>
      <use xlink:href="#DejaVuSans-64" transform="translate(807.125 0)"/>
      <use xlink:href="#DejaVuSans-20" transform="translate(870.601562 0)"/>
      <use xlink:href="#DejaVuSans-61" transform="translate(902.388672 0)"/>
      <use xlink:href="#DejaVuSans-73" transform="translate(963.667969 0)"/>
      <use xlink:href="#DejaVuSans-73" transform="translate(1015.767578 0)"/>
      <use xlink:href="#DejaVuSans-69" transform="translate(1067.867188 0)"/>
      <use xlink:href="#DejaVuSans-67" transform="translate(1095.650391 0)"/>
      <use xlink:href="#DejaVuSans-6e" transform="translate(1159.126953 0)"/>
      <use xlink:href="#DejaVuSans-6d" transform="translate(1222.505859 0)"/>
      <use xlink:href="#DejaVuSans-65" transform="translate(1319.917969 0)"/>
      <use xlink:href="#DejaVuSans-6e" transform="translate(1381.441406 0)"/>
      <use xlink:href="#DejaVuSans-74" transform="translate(1444.820312 0)"/>
      <use xlink:href="#DejaVuSans-73" transform="translate(1484.029297 0)"/>
     </g>
    </g>
   </g>
   <g id="line2d_53">
    <path d="M 512.568739 58.317703 
L 517.145299 121.437246 
L 521.721859 138.811615 
L 526.298418 210.068521 
L 530.874978 165.862848 
L 535.451538 199.731871 
L 540.028098 160.36463 
L 544.604657 193.134009 
L 549.181217 131.334039 
L 553.757777 173.120496 
L 558.334337 166.302705 
L 562.910897 154.206626 
L 567.487456 167.18242 
L 572.064016 153.546839 
L 576.640576 177.299141 
L 581.217136 158.165343 
L 585.793695 170.921209 
L 590.370255 161.244345 
L 594.946815 156.405913 
L 599.523375 158.385271 
L 604.099935 164.543276 
L 608.676494 158.385271 
L 613.253054 166.962492 
L 617.829614 165.862848 
L 622.406174 165.862848 
L 626.982733 165.42299 
L 631.559293 169.161779 
L 636.135853 163.443632 
L 640.712413 162.783846 
L 645.288972 159.704844 
L 649.865532 168.501993 
L 654.442092 163.663561 
L 659.018652 162.343988 
L 663.595212 164.103418 
L 668.171771 164.763204 
L 672.748331 164.103418 
L 677.324891 160.144701 
L 681.901451 164.323347 
L 686.47801 167.402349 
L 691.05457 157.285628 
L 695.63113 165.42299 
L 700.20769 163.003775 
L 704.78425 160.584559 
L 709.360809 165.203062 
L 713.937369 167.402349 
L 718.513929 166.742563 
L 723.090489 168.94185 
L 727.667048 163.443632 
L 732.243608 166.742563 
L 736.820168 165.42299 
L 741.396728 168.062135 
L 745.973287 168.282064 
L 750.549847 160.584559 
L 755.126407 169.381707 
L 759.702967 170.70128 
L 764.279527 165.862848 
L 768.856086 164.543276 
L 773.432646 169.821565 
L 778.009206 166.962492 
L 782.585766 164.763204 
L 787.162325 166.742563 
L 791.738885 166.962492 
L 796.315445 165.862848 
L 800.892005 164.543276 
L 805.468565 165.642919 
L 810.045124 171.361066 
L 814.621684 160.584559 
L 819.198244 170.261422 
L 823.774804 168.501993 
L 828.351363 168.062135 
L 832.927923 166.302705 
L 837.504483 169.161779 
L 842.081043 168.062135 
L 846.657602 166.302705 
L 851.234162 172.020852 
L 855.810722 167.18242 
L 860.387282 170.481351 
L 864.963842 169.821565 
L 869.540401 166.742563 
L 874.116961 173.120496 
L 878.693521 166.522634 
" clip-path="url(#p13deb4dcb5)" style="fill: none; stroke: #1f77b4; stroke-width: 1.5; stroke-linecap: square"/>
   </g>
   <g id="line2d_54">
    <path d="M 512.568739 274.067779 
L 517.145299 190.055007 
L 521.721859 215.566739 
L 526.298418 132.87354 
L 530.874978 155.086341 
L 535.451538 175.099854 
L 540.028098 147.608764 
L 544.604657 220.185242 
L 549.181217 220.6251 
L 553.757777 181.917645 
L 558.334337 192.694152 
L 562.910897 200.171729 
L 567.487456 206.329733 
L 572.064016 196.872798 
L 576.640576 190.714793 
L 581.217136 211.608022 
L 585.793695 200.391657 
L 590.370255 211.608022 
L 594.946815 213.367452 
L 599.523375 219.525456 
L 604.099935 202.151087 
L 608.676494 203.690588 
L 613.253054 210.948236 
L 617.829614 190.494865 
L 622.406174 201.931158 
L 626.982733 206.109804 
L 631.559293 177.958928 
L 636.135853 208.748949 
L 640.712413 194.893439 
L 645.288972 206.549661 
L 649.865532 190.934722 
L 654.442092 207.209448 
L 659.018652 195.113368 
L 663.595212 200.611586 
L 668.171771 199.292014 
L 672.748331 196.213012 
L 677.324891 191.154651 
L 681.901451 190.714793 
L 686.47801 190.494865 
L 691.05457 208.309091 
L 695.63113 193.573867 
L 700.20769 194.67351 
L 704.78425 202.810873 
L 709.360809 189.175292 
L 713.937369 197.532584 
L 718.513929 197.752513 
L 723.090489 193.793796 
L 727.667048 196.213012 
L 732.243608 192.034366 
L 736.820168 190.934722 
L 741.396728 189.61515 
L 745.973287 193.353938 
L 750.549847 177.958928 
L 755.126407 184.336861 
L 759.702967 184.996647 
L 764.279527 192.694152 
L 768.856086 188.955364 
L 773.432646 189.395221 
L 778.009206 187.635791 
L 782.585766 194.233653 
L 787.162325 195.333297 
L 791.738885 191.594508 
L 796.315445 192.254295 
L 800.892005 197.312655 
L 805.468565 193.353938 
L 810.045124 193.793796 
L 814.621684 196.213012 
L 819.198244 187.195934 
L 823.774804 195.113368 
L 828.351363 193.134009 
L 832.927923 195.553225 
L 837.504483 190.714793 
L 842.081043 191.37458 
L 846.657602 194.233653 
L 851.234162 188.955364 
L 855.810722 194.453582 
L 860.387282 188.515506 
L 864.963842 187.195934 
L 869.540401 193.134009 
L 874.116961 190.274936 
L 878.693521 190.714793 
" clip-path="url(#p13deb4dcb5)" style="fill: none; stroke: #ff7f0e; stroke-width: 1.5; stroke-linecap: square"/>
   </g>
   <g id="line2d_55">
    <path d="M 512.568739 53.259342 
L 517.145299 126.055749 
L 521.721859 175.539712 
L 526.298418 158.165343 
L 530.874978 148.26855 
L 535.451538 154.426554 
L 540.028098 150.687766 
L 544.604657 143.650047 
L 549.181217 125.615892 
L 553.757777 154.646483 
L 558.334337 155.306269 
L 562.910897 142.110546 
L 567.487456 154.206626 
L 572.064016 142.550403 
L 576.640576 155.746127 
L 581.217136 133.533326 
L 585.793695 135.952542 
L 590.370255 142.990261 
L 594.946815 141.670688 
L 599.523375 144.529762 
L 604.099935 139.911259 
L 608.676494 145.189548 
L 613.253054 134.852898 
L 617.829614 143.650047 
L 622.406174 149.368194 
L 626.982733 129.134751 
L 631.559293 158.385271 
L 636.135853 144.749691 
L 640.712413 142.110546 
L 645.288972 139.031544 
L 649.865532 144.089904 
L 654.442092 138.151829 
L 659.018652 139.471401 
L 663.595212 141.45076 
L 668.171771 141.890617 
L 672.748331 139.031544 
L 677.324891 139.251473 
L 681.901451 137.711971 
L 686.47801 144.749691 
L 691.05457 141.670688 
L 695.63113 144.309833 
L 700.20769 142.110546 
L 704.78425 139.471401 
L 709.360809 141.230831 
L 713.937369 141.670688 
L 718.513929 144.529762 
L 723.090489 140.351116 
L 727.667048 146.50912 
L 732.243608 143.650047 
L 736.820168 143.650047 
L 741.396728 142.550403 
L 745.973287 143.21019 
L 750.549847 148.488479 
L 755.126407 138.811615 
L 759.702967 141.230831 
L 764.279527 147.168907 
L 768.856086 145.409477 
L 773.432646 138.591686 
L 778.009206 140.131187 
L 782.585766 139.471401 
L 787.162325 141.45076 
L 791.738885 137.9319 
L 796.315445 142.330475 
L 800.892005 145.849334 
L 805.468565 143.430118 
L 810.045124 145.409477 
L 814.621684 141.890617 
L 819.198244 142.990261 
L 823.774804 139.031544 
L 828.351363 146.50912 
L 832.927923 142.110546 
L 837.504483 146.948978 
L 842.081043 143.21019 
L 846.657602 145.409477 
L 851.234162 138.811615 
L 855.810722 150.687766 
L 860.387282 142.770332 
L 864.963842 146.289192 
L 869.540401 146.289192 
L 874.116961 142.110546 
L 878.693521 143.430118 
" clip-path="url(#p13deb4dcb5)" style="fill: none; stroke: #2ca02c; stroke-width: 1.5; stroke-linecap: square"/>
   </g>
   <g id="line2d_56">
    <path d="M 512.568739 284.844287 
L 517.145299 232.941108 
L 521.721859 140.571045 
L 526.298418 169.381707 
L 530.874978 201.271372 
L 535.451538 141.230831 
L 540.028098 211.827951 
L 544.604657 113.519812 
L 549.181217 192.914081 
L 553.757777 160.804487 
L 558.334337 156.185984 
L 562.910897 174.000211 
L 567.487456 142.770332 
L 572.064016 177.51907 
L 576.640576 146.729049 
L 581.217136 167.18242 
L 585.793695 163.223703 
L 590.370255 154.646483 
L 594.946815 159.045058 
L 599.523375 148.048621 
L 604.099935 163.883489 
L 608.676494 163.223703 
L 613.253054 157.725485 
L 617.829614 170.481351 
L 622.406174 153.326911 
L 626.982733 169.821565 
L 631.559293 164.983133 
L 636.135853 153.546839 
L 640.712413 170.70128 
L 645.288972 165.203062 
L 649.865532 166.962492 
L 654.442092 161.464273 
L 659.018652 173.560353 
L 663.595212 164.323347 
L 668.171771 164.543276 
L 672.748331 171.141137 
L 677.324891 179.938286 
L 681.901451 177.738999 
L 686.47801 167.842206 
L 691.05457 163.223703 
L 695.63113 167.18242 
L 700.20769 170.70128 
L 704.78425 167.622278 
L 709.360809 174.879926 
L 713.937369 163.883489 
L 718.513929 161.464273 
L 723.090489 167.402349 
L 727.667048 164.323347 
L 732.243608 168.062135 
L 736.820168 170.481351 
L 741.396728 170.261422 
L 745.973287 165.642919 
L 750.549847 183.457146 
L 755.126407 177.958928 
L 759.702967 173.560353 
L 764.279527 164.763204 
L 768.856086 171.580995 
L 773.432646 172.680638 
L 778.009206 175.75964 
L 782.585766 172.020852 
L 787.162325 166.962492 
L 791.738885 174.000211 
L 796.315445 170.041494 
L 800.892005 162.783846 
L 805.468565 168.062135 
L 810.045124 159.924772 
L 814.621684 171.800923 
L 819.198244 170.041494 
L 823.774804 167.842206 
L 828.351363 162.783846 
L 832.927923 166.522634 
L 837.504483 163.663561 
L 842.081043 167.842206 
L 846.657602 164.543276 
L 851.234162 170.70128 
L 855.810722 158.165343 
L 860.387282 168.721921 
L 864.963842 167.18242 
L 869.540401 164.323347 
L 874.116961 164.983133 
L 878.693521 169.821565 
" clip-path="url(#p13deb4dcb5)" style="fill: none; stroke: #d62728; stroke-width: 1.5; stroke-linecap: square"/>
   </g>
   <g id="patch_21">
    <path d="M 494.2625 296.423534 
L 494.2625 41.680095 
" style="fill: none; stroke: #bac5ce; stroke-width: 0.8; stroke-linejoin: miter; stroke-linecap: square"/>
   </g>
   <g id="patch_22">
    <path d="M 494.2625 296.423534 
L 896.99976 296.423534 
" style="fill: none; stroke: #bac5ce; stroke-width: 0.8; stroke-linejoin: miter; stroke-linecap: square"/>
   </g>
   <g id="text_43">
    <!-- First configured case: 2026/42 -->
    <g style="fill: #192936" transform="translate(592.41988 35.680095) scale(0.12 -0.12)">
     <defs>
      <path id="DejaVuSans-Bold-46" d="M 588 4666 
L 3834 4666 
L 3834 3756 
L 1791 3756 
L 1791 2888 
L 3713 2888 
L 3713 1978 
L 1791 1978 
L 1791 0 
L 588 0 
L 588 4666 
z
" transform="scale(0.015625)"/>
      <path id="DejaVuSans-Bold-63" d="M 3366 3391 
L 3366 2478 
Q 3138 2634 2908 2709 
Q 2678 2784 2431 2784 
Q 1963 2784 1702 2511 
Q 1441 2238 1441 1747 
Q 1441 1256 1702 982 
Q 1963 709 2431 709 
Q 2694 709 2930 787 
Q 3166 866 3366 1019 
L 3366 103 
Q 3103 6 2833 -42 
Q 2563 -91 2291 -91 
Q 1344 -91 809 395 
Q 275 881 275 1747 
Q 275 2613 809 3098 
Q 1344 3584 2291 3584 
Q 2566 3584 2833 3536 
Q 3100 3488 3366 3391 
z
" transform="scale(0.015625)"/>
      <path id="DejaVuSans-Bold-67" d="M 2919 594 
Q 2688 288 2409 144 
Q 2131 0 1766 0 
Q 1125 0 706 504 
Q 288 1009 288 1791 
Q 288 2575 706 3076 
Q 1125 3578 1766 3578 
Q 2131 3578 2409 3434 
Q 2688 3291 2919 2981 
L 2919 3500 
L 4044 3500 
L 4044 353 
Q 4044 -491 3511 -936 
Q 2978 -1381 1966 -1381 
Q 1638 -1381 1331 -1331 
Q 1025 -1281 716 -1178 
L 716 -306 
Q 1009 -475 1290 -558 
Q 1572 -641 1856 -641 
Q 2406 -641 2662 -400 
Q 2919 -159 2919 353 
L 2919 594 
z
M 2181 2772 
Q 1834 2772 1640 2515 
Q 1447 2259 1447 1791 
Q 1447 1309 1634 1061 
Q 1822 813 2181 813 
Q 2531 813 2725 1069 
Q 2919 1325 2919 1791 
Q 2919 2259 2725 2515 
Q 2531 2772 2181 2772 
z
" transform="scale(0.015625)"/>
      <path id="DejaVuSans-Bold-3a" d="M 716 3500 
L 1844 3500 
L 1844 2291 
L 716 2291 
L 716 3500 
z
M 716 1209 
L 1844 1209 
L 1844 0 
L 716 0 
L 716 1209 
z
" transform="scale(0.015625)"/>
      <path id="DejaVuSans-Bold-32" d="M 1844 884 
L 3897 884 
L 3897 0 
L 506 0 
L 506 884 
L 2209 2388 
Q 2438 2594 2547 2791 
Q 2656 2988 2656 3200 
Q 2656 3528 2436 3728 
Q 2216 3928 1850 3928 
Q 1569 3928 1234 3808 
Q 900 3688 519 3450 
L 519 4475 
Q 925 4609 1322 4679 
Q 1719 4750 2100 4750 
Q 2938 4750 3402 4381 
Q 3866 4013 3866 3353 
Q 3866 2972 3669 2642 
Q 3472 2313 2841 1759 
L 1844 884 
z
" transform="scale(0.015625)"/>
      <path id="DejaVuSans-Bold-30" d="M 2944 2338 
Q 2944 3213 2780 3570 
Q 2616 3928 2228 3928 
Q 1841 3928 1675 3570 
Q 1509 3213 1509 2338 
Q 1509 1453 1675 1090 
Q 1841 728 2228 728 
Q 2613 728 2778 1090 
Q 2944 1453 2944 2338 
z
M 4147 2328 
Q 4147 1169 3647 539 
Q 3147 -91 2228 -91 
Q 1306 -91 806 539 
Q 306 1169 306 2328 
Q 306 3491 806 4120 
Q 1306 4750 2228 4750 
Q 3147 4750 3647 4120 
Q 4147 3491 4147 2328 
z
" transform="scale(0.015625)"/>
      <path id="DejaVuSans-Bold-36" d="M 2316 2303 
Q 2000 2303 1842 2098 
Q 1684 1894 1684 1484 
Q 1684 1075 1842 870 
Q 2000 666 2316 666 
Q 2634 666 2792 870 
Q 2950 1075 2950 1484 
Q 2950 1894 2792 2098 
Q 2634 2303 2316 2303 
z
M 3803 4544 
L 3803 3681 
Q 3506 3822 3243 3889 
Q 2981 3956 2731 3956 
Q 2194 3956 1894 3657 
Q 1594 3359 1544 2772 
Q 1750 2925 1990 3001 
Q 2231 3078 2516 3078 
Q 3231 3078 3670 2659 
Q 4109 2241 4109 1563 
Q 4109 813 3618 361 
Q 3128 -91 2303 -91 
Q 1394 -91 895 523 
Q 397 1138 397 2266 
Q 397 3422 980 4083 
Q 1563 4744 2578 4744 
Q 2900 4744 3203 4694 
Q 3506 4644 3803 4544 
z
" transform="scale(0.015625)"/>
      <path id="DejaVuSans-Bold-2f" d="M 1644 4666 
L 2338 4666 
L 691 -594 
L 0 -594 
L 1644 4666 
z
" transform="scale(0.015625)"/>
      <path id="DejaVuSans-Bold-34" d="M 2356 3675 
L 1038 1722 
L 2356 1722 
L 2356 3675 
z
M 2156 4666 
L 3494 4666 
L 3494 1722 
L 4159 1722 
L 4159 850 
L 3494 850 
L 3494 0 
L 2356 0 
L 2356 850 
L 288 850 
L 288 1881 
L 2156 4666 
z
" transform="scale(0.015625)"/>
     </defs>
     <use xlink:href="#DejaVuSans-Bold-46"/>
     <use xlink:href="#DejaVuSans-Bold-69" transform="translate(68.310547 0)"/>
     <use xlink:href="#DejaVuSans-Bold-72" transform="translate(102.587891 0)"/>
     <use xlink:href="#DejaVuSans-Bold-73" transform="translate(151.904297 0)"/>
     <use xlink:href="#DejaVuSans-Bold-74" transform="translate(211.425781 0)"/>
     <use xlink:href="#DejaVuSans-Bold-20" transform="translate(259.228516 0)"/>
     <use xlink:href="#DejaVuSans-Bold-63" transform="translate(294.042969 0)"/>
     <use xlink:href="#DejaVuSans-Bold-6f" transform="translate(353.320312 0)"/>
     <use xlink:href="#DejaVuSans-Bold-6e" transform="translate(422.021484 0)"/>
     <use xlink:href="#DejaVuSans-Bold-66" transform="translate(493.212891 0)"/>
     <use xlink:href="#DejaVuSans-Bold-69" transform="translate(536.71875 0)"/>
     <use xlink:href="#DejaVuSans-Bold-67" transform="translate(570.996094 0)"/>
     <use xlink:href="#DejaVuSans-Bold-75" transform="translate(642.578125 0)"/>
     <use xlink:href="#DejaVuSans-Bold-72" transform="translate(713.769531 0)"/>
     <use xlink:href="#DejaVuSans-Bold-65" transform="translate(763.085938 0)"/>
     <use xlink:href="#DejaVuSans-Bold-64" transform="translate(830.908203 0)"/>
     <use xlink:href="#DejaVuSans-Bold-20" transform="translate(902.490234 0)"/>
     <use xlink:href="#DejaVuSans-Bold-63" transform="translate(937.304688 0)"/>
     <use xlink:href="#DejaVuSans-Bold-61" transform="translate(996.582031 0)"/>
     <use xlink:href="#DejaVuSans-Bold-73" transform="translate(1064.0625 0)"/>
     <use xlink:href="#DejaVuSans-Bold-65" transform="translate(1123.583984 0)"/>
     <use xlink:href="#DejaVuSans-Bold-3a" transform="translate(1191.40625 0)"/>
     <use xlink:href="#DejaVuSans-Bold-20" transform="translate(1231.396484 0)"/>
     <use xlink:href="#DejaVuSans-Bold-32" transform="translate(1266.210938 0)"/>
     <use xlink:href="#DejaVuSans-Bold-30" transform="translate(1335.791016 0)"/>
     <use xlink:href="#DejaVuSans-Bold-32" transform="translate(1405.371094 0)"/>
     <use xlink:href="#DejaVuSans-Bold-36" transform="translate(1474.951172 0)"/>
     <use xlink:href="#DejaVuSans-Bold-2f" transform="translate(1544.53125 0)"/>
     <use xlink:href="#DejaVuSans-Bold-34" transform="translate(1581.054688 0)"/>
     <use xlink:href="#DejaVuSans-Bold-32" transform="translate(1650.634766 0)"/>
    </g>
   </g>
   <g id="legend_2">
    <g id="line2d_57">
     <path d="M 761.30226 52.158845 
L 769.30226 52.158845 
L 777.30226 52.158845 
" style="fill: none; stroke: #1f77b4; stroke-width: 1.5; stroke-linecap: square"/>
    </g>
    <g id="text_44">
     <!-- Expert 0 -->
     <g style="fill: #192936" transform="translate(783.70226 54.958845) scale(0.08 -0.08)">
      <use xlink:href="#DejaVuSans-45"/>
      <use xlink:href="#DejaVuSans-78" transform="translate(63.183594 0)"/>
      <use xlink:href="#DejaVuSans-70" transform="translate(122.363281 0)"/>
      <use xlink:href="#DejaVuSans-65" transform="translate(185.839844 0)"/>
      <use xlink:href="#DejaVuSans-72" transform="translate(247.363281 0)"/>
      <use xlink:href="#DejaVuSans-74" transform="translate(288.476562 0)"/>
      <use xlink:href="#DejaVuSans-20" transform="translate(327.685547 0)"/>
      <use xlink:href="#DejaVuSans-30" transform="translate(359.472656 0)"/>
     </g>
    </g>
    <g id="line2d_58">
     <path d="M 761.30226 63.901345 
L 769.30226 63.901345 
L 777.30226 63.901345 
" style="fill: none; stroke: #ff7f0e; stroke-width: 1.5; stroke-linecap: square"/>
    </g>
    <g id="text_45">
     <!-- Expert 1 -->
     <g style="fill: #192936" transform="translate(783.70226 66.701345) scale(0.08 -0.08)">
      <use xlink:href="#DejaVuSans-45"/>
      <use xlink:href="#DejaVuSans-78" transform="translate(63.183594 0)"/>
      <use xlink:href="#DejaVuSans-70" transform="translate(122.363281 0)"/>
      <use xlink:href="#DejaVuSans-65" transform="translate(185.839844 0)"/>
      <use xlink:href="#DejaVuSans-72" transform="translate(247.363281 0)"/>
      <use xlink:href="#DejaVuSans-74" transform="translate(288.476562 0)"/>
      <use xlink:href="#DejaVuSans-20" transform="translate(327.685547 0)"/>
      <use xlink:href="#DejaVuSans-31" transform="translate(359.472656 0)"/>
     </g>
    </g>
    <g id="line2d_59">
     <path d="M 833.55101 52.158845 
L 841.55101 52.158845 
L 849.55101 52.158845 
" style="fill: none; stroke: #2ca02c; stroke-width: 1.5; stroke-linecap: square"/>
    </g>
    <g id="text_46">
     <!-- Expert 2 -->
     <g style="fill: #192936" transform="translate(855.95101 54.958845) scale(0.08 -0.08)">
      <use xlink:href="#DejaVuSans-45"/>
      <use xlink:href="#DejaVuSans-78" transform="translate(63.183594 0)"/>
      <use xlink:href="#DejaVuSans-70" transform="translate(122.363281 0)"/>
      <use xlink:href="#DejaVuSans-65" transform="translate(185.839844 0)"/>
      <use xlink:href="#DejaVuSans-72" transform="translate(247.363281 0)"/>
      <use xlink:href="#DejaVuSans-74" transform="translate(288.476562 0)"/>
      <use xlink:href="#DejaVuSans-20" transform="translate(327.685547 0)"/>
      <use xlink:href="#DejaVuSans-32" transform="translate(359.472656 0)"/>
     </g>
    </g>
    <g id="line2d_60">
     <path d="M 833.55101 63.901345 
L 841.55101 63.901345 
L 849.55101 63.901345 
" style="fill: none; stroke: #d62728; stroke-width: 1.5; stroke-linecap: square"/>
    </g>
    <g id="text_47">
     <!-- Expert 3 -->
     <g style="fill: #192936" transform="translate(855.95101 66.701345) scale(0.08 -0.08)">
      <use xlink:href="#DejaVuSans-45"/>
      <use xlink:href="#DejaVuSans-78" transform="translate(63.183594 0)"/>
      <use xlink:href="#DejaVuSans-70" transform="translate(122.363281 0)"/>
      <use xlink:href="#DejaVuSans-65" transform="translate(185.839844 0)"/>
      <use xlink:href="#DejaVuSans-72" transform="translate(247.363281 0)"/>
      <use xlink:href="#DejaVuSans-74" transform="translate(288.476562 0)"/>
      <use xlink:href="#DejaVuSans-20" transform="translate(327.685547 0)"/>
      <use xlink:href="#DejaVuSans-33" transform="translate(359.472656 0)"/>
     </g>
    </g>
   </g>
  </g>
  <g id="text_48">
   <!-- All experts participate in training -->
   <g style="fill: #192936" transform="translate(280.364063 16.677428) scale(0.18 -0.18)">
    <defs>
     <path id="DejaVuSans-Bold-41" d="M 3419 850 
L 1538 850 
L 1241 0 
L 31 0 
L 1759 4666 
L 3194 4666 
L 4922 0 
L 3713 0 
L 3419 850 
z
M 1838 1716 
L 3116 1716 
L 2478 3572 
L 1838 1716 
z
" transform="scale(0.015625)"/>
    </defs>
    <use xlink:href="#DejaVuSans-Bold-41"/>
    <use xlink:href="#DejaVuSans-Bold-6c" transform="translate(77.392578 0)"/>
    <use xlink:href="#DejaVuSans-Bold-6c" transform="translate(111.669922 0)"/>
    <use xlink:href="#DejaVuSans-Bold-20" transform="translate(145.947266 0)"/>
    <use xlink:href="#DejaVuSans-Bold-65" transform="translate(180.761719 0)"/>
    <use xlink:href="#DejaVuSans-Bold-78" transform="translate(248.583984 0)"/>
    <use xlink:href="#DejaVuSans-Bold-70" transform="translate(313.085938 0)"/>
    <use xlink:href="#DejaVuSans-Bold-65" transform="translate(384.667969 0)"/>
    <use xlink:href="#DejaVuSans-Bold-72" transform="translate(452.490234 0)"/>
    <use xlink:href="#DejaVuSans-Bold-74" transform="translate(501.806641 0)"/>
    <use xlink:href="#DejaVuSans-Bold-73" transform="translate(549.609375 0)"/>
    <use xlink:href="#DejaVuSans-Bold-20" transform="translate(609.130859 0)"/>
    <use xlink:href="#DejaVuSans-Bold-70" transform="translate(643.945312 0)"/>
    <use xlink:href="#DejaVuSans-Bold-61" transform="translate(715.527344 0)"/>
    <use xlink:href="#DejaVuSans-Bold-72" transform="translate(783.007812 0)"/>
    <use xlink:href="#DejaVuSans-Bold-74" transform="translate(832.324219 0)"/>
    <use xlink:href="#DejaVuSans-Bold-69" transform="translate(880.126953 0)"/>
    <use xlink:href="#DejaVuSans-Bold-63" transform="translate(914.404297 0)"/>
    <use xlink:href="#DejaVuSans-Bold-69" transform="translate(973.681641 0)"/>
    <use xlink:href="#DejaVuSans-Bold-70" transform="translate(1007.958984 0)"/>
    <use xlink:href="#DejaVuSans-Bold-61" transform="translate(1079.541016 0)"/>
    <use xlink:href="#DejaVuSans-Bold-74" transform="translate(1147.021484 0)"/>
    <use xlink:href="#DejaVuSans-Bold-65" transform="translate(1194.824219 0)"/>
    <use xlink:href="#DejaVuSans-Bold-20" transform="translate(1262.646484 0)"/>
    <use xlink:href="#DejaVuSans-Bold-69" transform="translate(1297.460938 0)"/>
    <use xlink:href="#DejaVuSans-Bold-6e" transform="translate(1331.738281 0)"/>
    <use xlink:href="#DejaVuSans-Bold-20" transform="translate(1402.929688 0)"/>
    <use xlink:href="#DejaVuSans-Bold-74" transform="translate(1437.744141 0)"/>
    <use xlink:href="#DejaVuSans-Bold-72" transform="translate(1485.546875 0)"/>
    <use xlink:href="#DejaVuSans-Bold-61" transform="translate(1534.863281 0)"/>
    <use xlink:href="#DejaVuSans-Bold-69" transform="translate(1602.34375 0)"/>
    <use xlink:href="#DejaVuSans-Bold-6e" transform="translate(1636.621094 0)"/>
    <use xlink:href="#DejaVuSans-Bold-69" transform="translate(1707.8125 0)"/>
    <use xlink:href="#DejaVuSans-Bold-6e" transform="translate(1742.089844 0)"/>
    <use xlink:href="#DejaVuSans-Bold-67" transform="translate(1813.28125 0)"/>
   </g>
  </g>
  <g id="text_49">
   <!-- Expert identities are local to each run; curves show one predetermined case -->
   <g style="fill: #192936" transform="translate(277.734375 347.928041) scale(0.09 -0.09)">
    <defs>
     <path id="DejaVuSans-75" d="M 544 1381 
L 544 3500 
L 1119 3500 
L 1119 1403 
Q 1119 906 1312 657 
Q 1506 409 1894 409 
Q 2359 409 2629 706 
Q 2900 1003 2900 1516 
L 2900 3500 
L 3475 3500 
L 3475 0 
L 2900 0 
L 2900 538 
Q 2691 219 2414 64 
Q 2138 -91 1772 -91 
Q 1169 -91 856 284 
Q 544 659 544 1381 
z
M 1991 3584 
L 1991 3584 
z
" transform="scale(0.015625)"/>
     <path id="DejaVuSans-3b" d="M 750 3309 
L 1409 3309 
L 1409 2516 
L 750 2516 
L 750 3309 
z
M 750 794 
L 1409 794 
L 1409 256 
L 897 -744 
L 494 -744 
L 750 256 
L 750 794 
z
" transform="scale(0.015625)"/>
     <path id="DejaVuSans-77" d="M 269 3500 
L 844 3500 
L 1563 769 
L 2278 3500 
L 2956 3500 
L 3675 769 
L 4391 3500 
L 4966 3500 
L 4050 0 
L 3372 0 
L 2619 2869 
L 1863 0 
L 1184 0 
L 269 3500 
z
" transform="scale(0.015625)"/>
    </defs>
    <use xlink:href="#DejaVuSans-45"/>
    <use xlink:href="#DejaVuSans-78" transform="translate(63.183594 0)"/>
    <use xlink:href="#DejaVuSans-70" transform="translate(122.363281 0)"/>
    <use xlink:href="#DejaVuSans-65" transform="translate(185.839844 0)"/>
    <use xlink:href="#DejaVuSans-72" transform="translate(247.363281 0)"/>
    <use xlink:href="#DejaVuSans-74" transform="translate(288.476562 0)"/>
    <use xlink:href="#DejaVuSans-20" transform="translate(327.685547 0)"/>
    <use xlink:href="#DejaVuSans-69" transform="translate(359.472656 0)"/>
    <use xlink:href="#DejaVuSans-64" transform="translate(387.255859 0)"/>
    <use xlink:href="#DejaVuSans-65" transform="translate(450.732422 0)"/>
    <use xlink:href="#DejaVuSans-6e" transform="translate(512.255859 0)"/>
    <use xlink:href="#DejaVuSans-74" transform="translate(575.634766 0)"/>
    <use xlink:href="#DejaVuSans-69" transform="translate(614.84375 0)"/>
    <use xlink:href="#DejaVuSans-74" transform="translate(642.626953 0)"/>
    <use xlink:href="#DejaVuSans-69" transform="translate(681.835938 0)"/>
    <use xlink:href="#DejaVuSans-65" transform="translate(709.619141 0)"/>
    <use xlink:href="#DejaVuSans-73" transform="translate(771.142578 0)"/>
    <use xlink:href="#DejaVuSans-20" transform="translate(823.242188 0)"/>
    <use xlink:href="#DejaVuSans-61" transform="translate(855.029297 0)"/>
    <use xlink:href="#DejaVuSans-72" transform="translate(916.308594 0)"/>
    <use xlink:href="#DejaVuSans-65" transform="translate(955.171875 0)"/>
    <use xlink:href="#DejaVuSans-20" transform="translate(1016.695312 0)"/>
    <use xlink:href="#DejaVuSans-6c" transform="translate(1048.482422 0)"/>
    <use xlink:href="#DejaVuSans-6f" transform="translate(1076.265625 0)"/>
    <use xlink:href="#DejaVuSans-63" transform="translate(1137.447266 0)"/>
    <use xlink:href="#DejaVuSans-61" transform="translate(1192.427734 0)"/>
    <use xlink:href="#DejaVuSans-6c" transform="translate(1253.707031 0)"/>
    <use xlink:href="#DejaVuSans-20" transform="translate(1281.490234 0)"/>
    <use xlink:href="#DejaVuSans-74" transform="translate(1313.277344 0)"/>
    <use xlink:href="#DejaVuSans-6f" transform="translate(1352.486328 0)"/>
    <use xlink:href="#DejaVuSans-20" transform="translate(1413.667969 0)"/>
    <use xlink:href="#DejaVuSans-65" transform="translate(1445.455078 0)"/>
    <use xlink:href="#DejaVuSans-61" transform="translate(1506.978516 0)"/>
    <use xlink:href="#DejaVuSans-63" transform="translate(1568.257812 0)"/>
    <use xlink:href="#DejaVuSans-68" transform="translate(1623.238281 0)"/>
    <use xlink:href="#DejaVuSans-20" transform="translate(1686.617188 0)"/>
    <use xlink:href="#DejaVuSans-72" transform="translate(1718.404297 0)"/>
    <use xlink:href="#DejaVuSans-75" transform="translate(1759.517578 0)"/>
    <use xlink:href="#DejaVuSans-6e" transform="translate(1822.896484 0)"/>
    <use xlink:href="#DejaVuSans-3b" transform="translate(1886.275391 0)"/>
    <use xlink:href="#DejaVuSans-20" transform="translate(1919.966797 0)"/>
    <use xlink:href="#DejaVuSans-63" transform="translate(1951.753906 0)"/>
    <use xlink:href="#DejaVuSans-75" transform="translate(2006.734375 0)"/>
    <use xlink:href="#DejaVuSans-72" transform="translate(2070.113281 0)"/>
    <use xlink:href="#DejaVuSans-76" transform="translate(2111.226562 0)"/>
    <use xlink:href="#DejaVuSans-65" transform="translate(2170.40625 0)"/>
    <use xlink:href="#DejaVuSans-73" transform="translate(2231.929688 0)"/>
    <use xlink:href="#DejaVuSans-20" transform="translate(2284.029297 0)"/>
    <use xlink:href="#DejaVuSans-73" transform="translate(2315.816406 0)"/>
    <use xlink:href="#DejaVuSans-68" transform="translate(2367.916016 0)"/>
    <use xlink:href="#DejaVuSans-6f" transform="translate(2431.294922 0)"/>
    <use xlink:href="#DejaVuSans-77" transform="translate(2492.476562 0)"/>
    <use xlink:href="#DejaVuSans-20" transform="translate(2574.263672 0)"/>
    <use xlink:href="#DejaVuSans-6f" transform="translate(2606.050781 0)"/>
    <use xlink:href="#DejaVuSans-6e" transform="translate(2667.232422 0)"/>
    <use xlink:href="#DejaVuSans-65" transform="translate(2730.611328 0)"/>
    <use xlink:href="#DejaVuSans-20" transform="translate(2792.134766 0)"/>
    <use xlink:href="#DejaVuSans-70" transform="translate(2823.921875 0)"/>
    <use xlink:href="#DejaVuSans-72" transform="translate(2887.398438 0)"/>
    <use xlink:href="#DejaVuSans-65" transform="translate(2926.261719 0)"/>
    <use xlink:href="#DejaVuSans-64" transform="translate(2987.785156 0)"/>
    <use xlink:href="#DejaVuSans-65" transform="translate(3051.261719 0)"/>
    <use xlink:href="#DejaVuSans-74" transform="translate(3112.785156 0)"/>
    <use xlink:href="#DejaVuSans-65" transform="translate(3151.994141 0)"/>
    <use xlink:href="#DejaVuSans-72" transform="translate(3213.517578 0)"/>
    <use xlink:href="#DejaVuSans-6d" transform="translate(3252.880859 0)"/>
    <use xlink:href="#DejaVuSans-69" transform="translate(3350.292969 0)"/>
    <use xlink:href="#DejaVuSans-6e" transform="translate(3378.076172 0)"/>
    <use xlink:href="#DejaVuSans-65" transform="translate(3441.455078 0)"/>
    <use xlink:href="#DejaVuSans-64" transform="translate(3502.978516 0)"/>
    <use xlink:href="#DejaVuSans-20" transform="translate(3566.455078 0)"/>
    <use xlink:href="#DejaVuSans-63" transform="translate(3598.242188 0)"/>
    <use xlink:href="#DejaVuSans-61" transform="translate(3653.222656 0)"/>
    <use xlink:href="#DejaVuSans-73" transform="translate(3714.501953 0)"/>
    <use xlink:href="#DejaVuSans-65" transform="translate(3766.601562 0)"/>
   </g>
  </g>
 </g>
 <defs>
  <clipPath id="p942f121717">
   <rect x="45.94399" y="41.680095" width="402.73726" height="254.743439"/>
  </clipPath>
  <clipPath id="p13deb4dcb5">
   <rect x="494.2625" y="41.680095" width="402.73726" height="254.743439"/>
  </clipPath>
 </defs>
</svg>
